<svg id="Слой_1" xmlns="http://www.w3.org/2000/svg" viewBox="0 0 482.3 139.7"><style>.st2{fill:#969cb3}.st4{fill:#afb9d2}.st6{fill:#647bbc}</style><linearGradient id="SVGID_1_" gradientUnits="userSpaceOnUse" x1="39.95" x2="39.95" y2="93.043"><stop offset="0" stop-color="#7698b3"/><stop offset="1" stop-color="#4e5eab"/></linearGradient><path d="M3.1 64.3c2.3-7.7 11.2-20.9 11.2-20.9S36.7 13 48.7 0c2 27 13.9 43.8 25 64.5 3.8 7.1 4.1 15.3 1.3 23.2-.8.2-1.8.2-2.3.7-5.5 4.8-11.6 6.2-18.3 2.8-6.8-3.5-8.3-9.7-8.2-16.7.1-5.8.1-11.6-.2-17.3-.2-4.7-3.4-7.4-7.6-8.7-4.1-1.3-7.6 0-10.4 3.2-3 3.3-3.3 7.4-3.2 11.6.2 6-2.3 10.3-8.4 11.3C8.5 75.9 5 71 3.1 64.3z" fill="url(#SVGID_1_)"/><path d="M3.1 64.3C5 71 8.5 75.9 16.4 74.5c6.1-1 8.6-5.3 8.4-11.3-.1-4.2.2-8.2 3.2-11.6 2.8-3.2 6.3-4.5 10.4-3.2 4.2 1.3 7.4 4 7.6 8.7.3 5.8.3 11.6.2 17.3-.1 7 1.4 13.3 8.2 16.7 6.7 3.4 12.8 2 18.3-2.8.6-.5 1.5-.5 2.3-.7-3.6 14.9-13.9 23.2-27.7 28.1-.6-.2-1.1-.1-1.5.2-.9.1-1.9.3-2.8.4l-5.1.3c-2.9-.3-5.9-.6-8.8-1-24.8-10.1-34.7-29.7-26-51.3z" fill="#0e3a58"/><path class="st2" d="M36.1 111.4H20.4l5.2 8.1h26.1l5.2-8.1z"/><path d="M25.6 132.8l3.7 3.8c1 1 2.3 1.6 3.7 1.6h11.3c1.4 0 2.7-.6 3.7-1.6l3.7-3.8H25.6z" fill="#717588"/><path class="st4" d="M51.7 116.8h-26c-1.4 0-2.6 1.2-2.6 2.7 0 1.5 1.2 2.7 2.6 2.7h26c1.4 0 2.6-1.2 2.6-2.7 0-1.5-1.1-2.7-2.6-2.7zM51.7 127.5h-26c-1.4 0-2.6 1.2-2.6 2.7s1.2 2.7 2.6 2.7h26c1.4 0 2.6-1.2 2.6-2.7 0-1.5-1.1-2.7-2.6-2.7z"/><path class="st2" d="M51.7 122.1H25.6c-1.4 0-2.6 1.2-2.6 2.7 0 1.5 1.2 2.7 2.6 2.7h26c1.4 0 2.6-1.2 2.6-2.7.1-1.5-1-2.7-2.5-2.7z"/><linearGradient id="SVGID_2_" gradientUnits="userSpaceOnUse" x1="29.904" y1="82.503" x2="37.917" y2="82.503"><stop offset="0" stop-color="#7698b3"/><stop offset="1" stop-color="#4e5eab"/></linearGradient><path d="M29.9 85.3c-.2 2.8 1.2 4.6 3.8 4.7 2.6.1 4.2-2.1 4.2-4.1.1-2.6-4.2-10.9-4.2-10.9s-3.6 8.3-3.8 10.3z" fill="url(#SVGID_2_)"/><g><path class="st6" d="M124.8 137.1c-.9-.4-1.7-1-2.4-1.7-2.2-2.2-4.3-4.4-6.1-6.9-2.1-2.9-3.2-6.2-3.4-9.7-.1-1.5-.2-3.1-.3-4.6 0-.2 0-.5.1-.8.2-2.2.4-4.5.8-6.7.3-2 .8-4 1.3-5.8.6-2.4 1.1-4.7 2.4-6.9.1-.2.2-.4.3-.8.9-3.1 2.8-5.8 4-8.9.2-.6.6-1.1.9-1.7 1.8-2.8 3.3-5.5 4.8-8.3.7-1.3 1.5-2.4 2.4-3.4 2.3-2.6 4.4-5.4 6.7-8 .1-.2.2-.6.4-.7 2.6-2.1 4.4-5 6.9-7 .1 0 .2-.1.3-.2 2.3-1.7 4.5-3.4 6.9-5 2.2-1.4 4.7-2.1 7.3-2.5 1.9-.3 3.6.1 5.2 1.1 1.9 1.1 3.5 2.5 4.7 4.4 1.4 2.2 2.8 4.5 3.6 7 1.2 3.1 1.5 6.4.8 9.6-.4 2-1 3.9-2.2 5.4-.7.9-1.1 1.8-1.4 2.8-.3.6-.6 1.1-.9 1.8 0-.1 0-.1-.1-.2h-.1c.1 0 .2.1.2.1-.3.5-.9.9-1.5 1.1-.6.3-1.1.8-1.3 1.4-.2.1-.3.3-.4.4-.9.2-1.6.8-2.4 1.2-.3.1-.5.2-.8.3-.2 0-.4 0-.6-.1-.2-.2-.1-.4 0-.6.2-.3.6-.5.7-.8.1-.1-.1-.3-.1-.3-.7-.1-1.1.2-1.7.4-.9.2-1.5-.1-1.7-1-.1-1.1-.2-2.2-.8-3.2-.3-.4-.2-1.1 0-1.7.2-.7.5-1.2.9-1.9 1-1.9 2.1-3.7 3.2-5.6.9-1.8 1.3-3.7 2.1-5.6.3-.8.7-1.7.9-2.4.3-1.1-.1-1.5-1.1-1.3-1 .2-2 .4-2.9.7.4-.2.9-.5 1.4-.8.1-.1.3-.3.1-.6 0 0-.2-.1-.3 0-3.1.9-5.6 2.5-7.5 5.2v-.1c-.9.3-1.4.9-2 1.5-1.1 1.2-2.2 2.4-3.4 3.6-1.1 1.1-2.1 2.4-3 3.7-.8 1.1-1.7 2.2-2.4 3.3-.9 1.1-1.9 2.3-2.2 3.7-.1.1-.3.2-.4.4l-.1.1c.1.1.2.1.2 0 .1-.2.2-.4.3-.5.4-.3.9-.5 1.1-.8-.8 2-1.9 3.6-3.2 5.4v-.9c.1-.2.2-.5.4-.8l-.4.8c-.8.6-1.4 1.2-1.8 2-.1.2-.1.6.1.4.8-.2 1 0 .7.7-.4.7-.9 1.4-1.5 2h-.4c-.4.4-.7 1-.8 1.7.3-.6.7-1.1.8-1.7h.4c-.4 2-1.3 3.7-2.5 5.4 0-.1.1-.3.1-.6 0-.1 0-.3-.1-.3-.1-.1-.3 0-.3 0-.3.2-.4.6-.4.9s.2.3.4.2c.1 0 .2-.1.3-.2-.1.9-.5 1.5-1.2 2.1h-.4c-.3 1-.8 2-1.1 3-.2.4-.5.9.2 1.1.1 0 .2.2.1.3 0 .3-.1.5-.1.9 0 1.3-1.8 1.8-1.4 3.2.2 1.2-.4 2.3-.7 3.5-.2 1.2-.5 2.4-.8 3.6-.5 2.8-1 5.6-1.1 8.5-.1 1.9.1 3.7.2 5.6 0 .2.1.4.1.7.4 1.4 1 1.8 2.5 1.5 2-.4 3.8-1.4 5.7-2.4 2.6-1.5 5-3.6 7.3-5.6 3-2.4 5.7-5.1 8.5-7.8 1.3-1.3 2.5-2.9 3.7-4.4.7-.8 1.4-1.1 2.4-1 .2 0 .5.2.4.5-.2.9-.3 1.8-.5 2.6.4-.4 1-.8 1.4-1.1 1.1-.7 2.1-.1 2.2 1.1 0 .6 0 1-.1 1.4 0 .3-.1.7-.2 1-.1.3-.2.7-.3.9-1.2.9-2.1 2-2.9 3.1-1.1 1.2-2.1 2.4-3.2 3.6-3.6 4.1-7.7 7.8-12 11.2l-1.3 1.3v.3c.1.1.3.1.4.1.9-.3 1.5-.9 2.2-1.4 4.4-3.3 8.3-7.2 11.8-11.3 1.8-2.1 3.6-4.3 4.9-6.9.1-.2.2-.6.3-.9.2 0 .4-.1.6-.2.5-.1.9.1.7.4-.2.7-.4 1.2-.8 1.8l-3.3 4.5c-2.4 3.2-5.2 6.1-8 8.8-.4.5-.9 1.1-1.3 1.6-.2.2-.1.4.1.7-.4.3-.9.5-1.2.9-.5-.1-1-.1-1.3.3-.4.4-.9 1-1.3 1.5-.4.4-.8 1-1.2 1.4h.1c-1 .9-2 1.5-3.2 2.1-1.8.9-3.4 1.9-5.4 2.2-1.5.2-3 .3-4.5.1-2 .1-4.2-.4-6.2-1.5zm8.1-40.4c-.1.2-.3.2-.4 0h.4zm5.2 32.5c.7-.3 1.3-.7 2-1.1 1.1-.7 2.2-1.4 3.3-2.2-.5.8-1.1 1.4-1.7 2.2-.2.1-.3.2-.4.3-.3.2-.5.3-.9.4.3-.1.5-.2.9-.4l.4-.4c.9-.2 1.5-.8 2.3-1.3 3-2.4 5.9-5.2 8.6-8 .4-.6 1-1.1 1.2-1.9.1-.1.2-.3.4-.4.1-.1.2-.3.4-.4l-.4.4-.4.4c-.7.3-1.1.8-1.5 1.3-1.3 1.2-2.5 2.4-3.7 3.6-.5.4-1.1 1-1.9 1.3 2-2.1 4.1-4.2 6-6.3.6-.5 1.2-1.2 1.5-2.1-1 .4-1.6 1.3-2.4 2-4 4.1-8.3 7.8-12.9 11.2-.3.3-.8.7-1.1 1v.3c.1.1.3.2.3.1zm1.4-61.7c.1-.3.3-.7.4-1-.2.3-.4.6-.7.8v.2h.3zm3.5 10.7c.2-.3.7-.5.7-.3s-.1.4-.2.6c-.3.4-.7.8-1 1.1.2-.4.3-1 .5-1.4zm2.9 45.6c-.8.9-1.5 1.7-2.5 2.2.6-.8 1.5-1.6 2.5-2.2zm.4-.3zm0 9.6c-.2.1-.3.3-.4.4.1-.1.2-.3.4-.4zm.4-10l-.4.4.4-.4zm0 9.5c-.1.2-.2.3-.3.4.1 0 .2-.3.3-.4zm.4-.4v.1c-.1.1-.2.2-.4.3.2-.1.3-.2.4-.4zm.5-.3c-.1.1-.2.2-.4.3 0-.1.2-.2.4-.3zm.4-73.3c.9-.2 1.5-.9 2.1-1.7.1 0 .2-.1.3-.1.1-.1.2-.2 0-.2 0 0-.1 0-.1.1-.1 0-.2.1-.2.2-.9.4-1.7.9-2.1 1.7-.1.2-.3.3-.4.4.1-.1.2-.3.4-.4zm0 72.8c-.1.1-.3.2-.4.4.1-.2.2-.3.4-.4zm.8-60.3c-.1.1-.1.2-.2.3 0 0 0 .1-.1.2 0-.1.2-.2.3-.5zm.4-.3c-.1.1-.2.2-.4.3.1-.1.3-.2.4-.3zm.4-.4c-.1.1-.3.2-.4.4.1-.2.3-.3.4-.4zm0 59.8c-.1.1-.3.2-.4.3.1-.1.3-.2.4-.3zm.5-60.3l-.4.4c.1-.1.2-.3.4-.4zm0 59.9c-.1.1-.3.2-.4.3.1-.1.2-.2.4-.3zm.3-60.3h.1l-.4.4c.1-.1.2-.3.3-.4zm.1 59.8zm.4-60.3c-.1.2-.2.3-.3.4h-.1c.1 0 .2-.1.4-.4zm0 59.9c-.1.1-.2.3-.3.4h-.1c.1-.1.2-.3.4-.4zm.3-60.3v.2c-.1.1-.2.1-.3.2.1-.1.2-.2.3-.4zm.1 59.9c-.1.2-.2.3-.4.4.2-.1.3-.3.4-.4zm3-64.1v.1c.7-.2 1.2-.7 1.8-1.1.8-.5 1.5-1.1 2.4-1.4-1.2 1.5-3 2.5-4.4 3.8-.4.4-1 .8-1.5 1.1.2-.9 1.2-1.5 1.7-2.5zm-.9 62c-.1.2-.2.3-.4.4.2-.1.3-.3.4-.4zm0-72.8c2-.4 3.9-1.2 5.7-1.9.2 0 .3-.3.3-.4 0-.2-.2-.3-.4-.2-2.1.3-4.1.9-5.6 2.5h-.1.1zm.4 72.3c-.1.2-.2.3-.4.4.1 0 .3-.2.4-.4zm.5-.3c-.1.1-.3.2-.4.3 0-.1.1-.2.4-.3zm.4-.4zm.3-.5h.1c-.2.1-.3.3-.4.4.1-.2.2-.3.3-.4zm.5-.4c-.1.2-.2.3-.4.4.2-.1.3-.3.4-.4zm.4-70.3c.5 0 1.1-.1 1.7-.2 1.4-.3 2.4-1 1.9-1.1-.8-.2-1.4.2-2.1.5-.5.2-1 .6-1.4.9h-.1V54zm1.1 5.5c1.4-.4 2.8-1 4.1-1.5.2 0 .4-.1.5-.3.1 0 .1-.2.1-.3-.1-.3-.3-.3-.7-.3-1.7.2-3.1 1-4.4 2-.2.2-.4.3-.2.5.2 0 .5 0 .6-.1zm1.9 2.1zm.8-.5c-.2.1-.5.3-.8.4h-.1c.3-.2.6-.3.9-.4zm.8-.4c-.3.2-.5.3-.9.4.4-.1.6-.3.9-.4zm-.4 58.2l-.4.4c.1-.2.3-.3.4-.4zm5.1-36.9h.8c-.3.3-.7.9-1.2.4 0 0 .1-.3.4-.4zm1.2-.4c-.1.2-.2.3-.4.4 0-.1.3-.2.4-.4zm3.6-8.2c.1-.2.1-.4.1-.5l-.4.4c-.2.3-.2.7 0 .5.1 0 .2-.2.3-.4zM238.6 135.9c-1.8-.8-3-1.9-3.9-3.3-.8-1.3-1.5-2.5-2.6-3.5-1-1-1.5-2.3-2-3.6-.2-.9-.2-1.7-.1-2.5.5-2.2 1-4.4 2-6.4.8-1.7 1.4-3.3 2.1-5 1.1-3.3 2.9-6.3 4.3-9.4 1.8-3.8 3.5-7.7 5-11.7.3-.9.7-1.5 1.1-2.3.8-1.1 1.2-2.3 1.9-3.5 1-2.1 2-4.3 3.4-6.2.8-1.2 1.4-2.4 2-3.7 1-1.9 1.9-3.9 3.1-5.7.3-.7.8-1.3.9-2.1.1-.8.4-1.4 1-2 .4-.4.2-.9-.3-1-.3-.1-.5-.1-.9-.2-1-.2-1.3-.9-1.4-1.8-.1-.9.3-1.6 1.2-2.1.3-.1.8-.2 1.2-.2.9-.1 1.9-.2 2.9-.3.4 0 1 0 1.4-.3.1 0 .2-.2.2-.3 0-.1-.2-.2-.3-.2-.7-.2-1.3-.1-2 0-1.1.1-2.1.2-3.2.2-.1 0-.3-.1-.3-.2 0-.2.2-.3.3-.3.3-.1.5-.1.9-.1 1.2-.1 2.5-.2 3.7-.3.4 0 1-.1 1.4-.1.3-.1.5-.2.7-.5.1-.2-.1-.4-.8-.4-1.2 0-2.4.1-3.7.1-.7 0-1.3.1-2.1.1s-1.2-.4-1.1-1.3c0-1.1 1.2-2.4 2.5-2.8.5-.1 1.2-.1 1.9-.1 1.4-.1 2.9-.1 4.4-.3.3 0 .7-.1 1-.1 3.7.1 7.5.1 11.2 0 1.1 0 2.1.1 3.2 0 3.3-.1 6.5.5 9.7 1.2 2 .4 3 1.9 3.7 3.4.2.4-.2.9-.7.9-.7-.1-1.4-.1-2.1-.3-3.5-1-7.3-1.3-10.9-1.2h-8.6c-1.1.1-1.8.3-1.5.7.3.7 1 .4 1.4.4h12.5c2.3.1 4.6.3 6.9.7.8.1 1.4.4 2.2.7.2.1.4.2.2.4-.2.3-.3.7.1.9 1 .6 1.2 1.4 1.4 2.4.1 1.2-.2 1.7-1.3 1.5-1.1-.1-2.3-.2-3.3-.4-4-.8-7.9-.9-11.9-.8-1.5 0-3.1.1-4.6.2-.4 0-.9.1-1.2.2-.2.1-.4.2-.4.4-.1.3.3.4.5.4h2.1c3 0 5.9 0 9 .1 2.1 0 4.1.1 6.2.3 1.3.1 2.6.4 3.8.9.2.1.4.2.4.4.1.2-.1.3-.2.4-1.1.7-2.3 1.1-3.6.9-3.7-.4-7.5-.4-11.2-.5.1-.4.5-.3.8-.3 1 0 2 0 3 .1 1 0 2.1.2 3.1 0 .1-.1.2-.2.2-.3 0-.1-.1-.2-.2-.2-.1-.1-.2-.1-.3-.1-3.9-.2-7.6-.4-11.3 0-.4 0-1 .1-1.4.2-.1 0-.1.2-.2.3.1.1.2.2.3.2h1.6c.6 0 1.1 0 1.7.1-.8.4-1.7.5-2.5.5-1.8 0-2.8.8-3.3 2.4-1 3.2-2.1 6.5-3 9.8 0 .2-.1.4-.1.7-.1.7.3 1.2 1.1 1.2 1.8-.1 3.5.2 5.4.3 1 .1 1.9.2 2.9.4 1.4.2 2.6 1.1 3.6 2 .4.3.8.8 1 1.3.4 1.3 1.2 2.3 2.2 3.3.2.2.3.4.6.7.5.8.9 1.5.5 2.5-.1.3-.1.7-.2 1-.1.4 0 .9.3 1.1.3.2.7.4.6.9-.1.3-.4.5-.7.8-.7.4-1.3.5-2 .4-.5-.1-1.1-.2-1.6-.3-1.8-.3-3.6-.4-5.4-.1-1.4.3-2.9.5-4.4.5-.8 0-1.7.2-2.4.3-1.8.4-3.6.7-5.4.6-1.6-.2-2.8.3-3.4 1.9-.1.2-.2.4-.4.7-.1 0-.1-.4-.3-.1.1 0 .2.1.3.1-.1.8-.2 1.5-.9 2.1 0-.2 0-.4-.1-.5-.1-.2-.4-.1-.5.1-.2.4-.5.9-.8 1.4-.8 2.1-1.4 4.2-2.2 6.3-.5 1.3-1.2 2.8-1.8 4.1-.8 1.4-.9 3.2-1.3 4.7-.1.3.2.4.6.3.2-.1.4-.1.5 0 .4.9 1.1.8 1.8.5 1.5-.3 3-.5 4.5-1 2-.7 4.1-.8 6.2-.9 1.3 0 2.5.2 3.7.7 1.1.3 2 .9 2.5 2 .4.7 1 1.1 1.8 1.4 1.9.7 3 2 3.5 3.8.2.8.7 1.5 1.1 2.2.5.5.3 1.3-.3 1.8-.5.4-1.3.5-2 .5-2.5 0-5 .7-7.4 1.4-.9.3-1.8.5-2.6.8-.4.2-1 .3-1.5.5-.7.3-1.2.6-2 .7-.4 0-.9.1-1.2.3-1.1.9-2.4 1.2-3.7 1.7-.9.3-1.8.7-2.5 1-1 .3-1.9.7-2.9.9-.8.1-1.5.3-2.4.7-1.4.5-3 .7-4.5.3-2-.4-3.5-.8-5.1-1.5zm16.8-30.1c0 .7-.1 1.3-.4 2-.1.1-.2.2-.5.7 0-1.3.4-2.1.9-2.7zm1.7-4.2h-.1c-.2 1.4-.8 2.9-1.7 4.2.3-1.5.8-3 1.8-4.2zm10-31.1l.1-.1-.2.1h.1zm18.7-11.6c.1 0 .2-.1.2-.2s-.1-.3-.2-.3c-.7-.1-1.3-.3-2-.3-4.5-.2-8.9-.1-13.3 0-.2 0-.4 0-.7.1-.1 0-.2.1-.2.2-.1.2.1.4.3.4.5 0 1.1.1 1.7 0 2.2 0 4.3-.1 6.5-.2 1.5.1 3.2.2 4.7.3h3zm1.5 7.4v-.1l-.1.1h.1z"/><path class="st6" d="M323.9 134.4c.6-.9 1.1-1.8 1.7-2.6.2-.2.4-.5.2-.8-.3-.3-.7 0-.9.2-.7.7-1.3 1.3-1.9 2-.3.3-.5.7-.9.9-.8.8-1.6.8-2.4.1-.9-.8-1.1-1.7-.7-2.9.1-.3.3-.8.4-1.1 0-.1-.1-.2-.2-.3h-.2c-.3.3-.8.7-1.4 1.2.2-.8.4-1.3.7-1.9 0-.1 0-.3-.1-.3-.1-.1-.2-.1-.3-.1-.3.2-.7.6-1 .8-.5.3-1.1.2-1.4-.3-.5-1.2-.9-2.4-.4-3.6 1.1-2.9 1.5-5.9 2.9-8.7.8-1.7 1-3.5 1.4-5.3.2-.7.4-1.4.6-2.2v-1.4c-.1-.4-.4-.7-.8-.6-.5 0-1.1.2-1.6.3-2.3.6-4.6 1.1-6.9 1.7-.1-.3-.3-.7-.7-.4-1.2.9-2.4 1.8-3.2 3-.2.3-.4.6-.5.9-1.4 3.1-2.9 6-4.3 9.1-.9 1.9-1.8 3.9-2.6 5.8-.7 1.5-1.3 3-1.6 4.5-.1.7-.4 1-1.2 1-.7 0-1.1.5-1.5.9-.8.8-1.2.7-1.8-.3 0-.1 0-.1-.1-.2-.4-.8-.5-.8-1.2-.2-.1.1-.2.3-.4.4-.3.3-.8.3-1.1.1-1.1-.7-1.9-1.4-2.1-2.8 0-.4-.1-.9-.1-1.2-.1-.4-.3-.7-.8-.6-1.8.2-2.5-.8-3.1-2.2-.4-1.4-.3-2.8 0-4.2.2-.8.4-1.5.8-2.3.2-1 .5-2 .3-3 0-.5.1-1 .3-1.5.2-.6.1-.8-.5-.7h-1c-.7-.1-1.2-.6-1.4-1.1-.2-.8 0-1.3.4-1.8.7-.4 1.4-1 2.1-1.4.3-.2.7-.3.9-.5.7-.6 2-.4 2.1-1.7-1.1-.2-1.8.7-2.5 1.1-.9.4-1.7 1.1-3 1.4.7-.9 1.3-1.3 2-1.7 1.1-.7 2.3-1.3 3.5-2 .3-.1.7-.3 1-.6.1-.1.3-.4.2-.5 0-.2-.3-.3-.4-.2-.8.3-1.5.7-2.3 1.1-1.3.8-2.6 1.5-4 2.3-.2.2-.4.3-.7.4-.3.1-.7 0-.7-.3-.2-1.4 0-2.8 1.3-3.7 1.2-.9 2.4-1.9 3.6-2.9.7-.4 1.4-.8 2.2-1.1.8-.3 1.7-.7 2.5-1 1.1-.6 2.1-1.4 2.5-2.6.8-1.5 1.7-2.9 2.2-4.5.1-.5.5-1.1.8-1.7.9-1.8 1.8-3.3 2.3-5.2.8-2.1 1.8-4.1 3-5.9 1-1.7 1.7-3.4 2.4-5.2.3-.8.7-1.4 1.1-2.2 1.4-2.1 2.9-4.3 4.3-6.4.2-.4.6-.9.7-1.3.4-1.3 1.2-2.5 2.1-3.6 2-2.4 3.6-5.1 5.8-7.4.9-.9 1.7-1.9 2.6-2.6 1.5-1.2 3-2.6 4.7-3.8 1.2-.8 2.6-1.5 4-2.1 1.7-.7 3.2-.2 4.5.9.5.5.4 1.2-.3 1.5-.7.3-1.3.7-2 1-.2.1-.4.3-.2.5.1.1.3.1.5.1.3-.1.7-.2 1-.3.3-.1.8-.2 1.1-.3.2.1.3.2.1.3-.3.3-.7.5-1.1.9.5.4 1.1 0 1.5-.1.3-.1.7-.2 1-.3.8-.1 1.3.3 1.8 1 .3.4.3 1 0 1.5-.4.5-.8 1.1-.9 1.9-.1.1-.3.2-.4.4-.1.1-.2.2-.4.3.2-.1.3-.2.4-.4.1-.1.3-.2.4-.3.3 0 .7-.1 1 0 .5 0 .8.4.5.8-.3.6-.7.9-1 1.3-.4.6-.8 1-1.2 1.5-.1.1-.1.3.1.5h.5c-.1.3-.2.7-.2 1 0 1.2.4 2.2 1.5 2.8 1.3.8 2.2 1.9 2.9 3.3.8 1.6 1.6 3.2 2.3 4.8.7 1.8.9 3.5 1 5.4.1 2.6.2 5.4.3 8 0 .5-.1 1.1-.1 1.7-.1.3-.2.5-.2.9.3 3.1-.7 6.1-1.4 8.9-.8 2.5-1.5 5-2.3 7.4-.5 2.3-1.3 4.5-2.2 6.7-.2.4-.4.9-.5 1.4-.8 3.2-2 6.3-3.3 9.5-.3.9-.8 1.8-1 2.6-1 3-2.4 5.7-3.8 8.4-.4.9-1 1.4-1.5 2 .2-.6.4-1.2.8-1.8 1-2.1 2.1-4.2 3.1-6.4.3-.7.5-1.2.8-2 .8-2.9 2-5.6 3.1-8.4.7-1.3 1.1-2.8 1.2-4.2-.2.1-.4.1-.4.2-1.4 3.7-2.9 7.7-4.4 11.4-1.2 3.1-2.5 6-4.3 8.9-.4.8-1 1.4-1.5 2.2-.3.3-.7.7-1.1.9-.3.2-.7.3-1 .1-.9-.1-.6-.6-.4-.9zm-32.1-16.1c.1 0 .1-.1.1-.1-.1-.1-.2-.1-.2 0-.1.1 0 .1 0 .2 0 0 .1 0 .1-.1zm5.6 12c.5-1.3 1-2.6 1.7-4 1.8-3.6 3.5-7.4 5.3-11.1.3-.7.7-1.4 1-2.3.1-.1 0-.3 0-.5-.1-.1-.2-.2-.3-.1-.3.1-.5.4-.7.8-.9 1.8-1.8 3.6-2.6 5.5-1.4 3.1-3 6-4.2 9.2-.2.8-.4 1.5-.7 2.2 0 .2 0 .5.1.5.2.3.3-.1.4-.2zm6.8-39.7c-.1.4-.7.7-.3 1.1.3-.3.2-.7.3-1.1zm1.6-3c.1-.2.3-.5.4-.8.1-.2.2-.3.3-.4v-.3c-.1 0-.1.1-.2.2 0 .2-.1.3-.1.5-.1.2-.2.6-.4.9-.1.2-.2.5-.3.8.1-.2.2-.5.3-.9zm4.2-8.2l.1-.1-.1.1c-1 1.1-1.5 2.3-1.1 2.1.8-.5.9-1.3 1.1-2.1zm7.3 25.7c.1 0 .2-.1.2-.2-.1-.3-.3-.3-.5-.2-2 .3-4.1.8-6 1.2-.3 0-.7.3-1 .4-.1.1-.1.2-.1.3 0 .3.2.3.6.4 2.1-.4 4.5-.9 6.8-1.9zm-6.8 4.3v.1h-.1l.1-.1zm.8-32.5h-.1.1zm2.1-3.8V73c-.2.3-.3.7-.4.9l.4-.8zm10.4 21.8c.3-.8.5-1.8.8-2.5 1-2.4 1.5-4.8 1.8-7.4.1-.7.3-1.4.4-2.2.8-2.8 1.4-5.5 2.2-8.3.1-.4.1-.9.2-1.1v-.3c-.1-.2-.2-.4-.3-.5-.2-.1-.3 0-.5.2-.3.3-.3 1-1 .9-.9-.1-1.3.3-1.8.9-.5.7-1 1.4-1.4 2.1-1.3 2.3-2.6 4.7-4.2 6.9-2.4 3.4-4 7.1-5.9 10.6-.1.2-.1.5-.2.8 0 .1 0 .2.1.2s.2.1.3.1c.3-.1.7-.4.8-.7.6-1 1.1-2 1.5-3 .8-1.9 1.8-3.5 2.9-5.1.7-.9 1.1-1.6 1.5-2.5 1.1-2 2.1-4 3.2-5.8.4-.9 1-1.5 1.5-2.3.2-.2.3-.5.7-.2.1 0 0 .3-.1.5-.7 1.2-1.4 2.5-2.2 3.7-.9 1.3-1.7 2.8-2.4 4.2-.2.7-.5 1.3-1 1.8-1.9 2.5-3 5.4-4.4 8.1 0 .1-.1.3-.1.6-.1.4.1.7.4.9.4.1.8.1 1.2.2 1.3 0 2.6.1 4 .5 1.1.3 1.5 0 2-1.3zm.1-36.5l.3-.3.4-.4c.2-.1.3-.3.4-.4l.4-.4.4-.4c.1-.1.2-.2.4-.3.1-.2.2-.3.3-.4l.4-.4c.5-.2.9-.4 1.3-.9v.1c-.5.1-.9.4-1.3.8-.1.1-.2.3-.3.4-.2.1-.3.2-.4.4-.2.1-.3.2-.4.3-.1.2-.3.3-.4.4-.1.2-.3.3-.4.4-.1.1-.2.3-.4.4-.1.1-.2.3-.3.4-.2.1-.3.2-.4.4-.1.1-.3.2-.4.3l.4-.4zM328.4 71c.1-.2 0-.3-.1-.3s-.2.1-.2.1v.3c.1 0 .2-.1.3-.1zm8.9 38.4c.9-1.4 1.4-3.1 1.8-4.7 0-.1-.1-.2-.2-.2s-.2.1-.3.2c-.6 1.5-1.2 3.1-1.8 4.5 0 .1.1.3.2.3 0 .1.2 0 .3-.1zm2.6-8.2v-.1h-.1c-.1 0-.1 0-.1.1s.1.1.2 0zm.7-2h-.1l.1.1v-.1zm1.1-3.9c.1-.1.1-.3.1-.5.5-.7.8-1.3.4-1.1-.3.2-.3.8-.4 1.1-.1.2-.2.3-.3.5v.3c.1 0 .2-.2.2-.3zM398.8 135.9c-1.5-1-3.3-1.4-4.6-2.8-.2-.2-.5-.1-.8 0-.4-.1-.9-.2-1.1-.5-.9-1.2-2.1-1.4-3.4-1.8-3.4-.8-6.6-2-9.7-3.6.1 0 .2 0 .3-.1.1-.1.1-.3 0-.3 0-.1-.2-.2-.3-.1 0 0-.1.1-.1.2s0 .3.1.4c-.7-.2-1.3-.3-2-.5-.2-.1-.5-.2-.5-.3.1-1.3-1.1-1.3-1.8-1.5-1.3-.5-2.6-.9-4-1.3-.8-.2-1.6-.7-2.4-.1-.3.2-.7.1-1 0-1.3-.7-2.8-1.1-3.8-2.1-.7.2-1.1.5-1.4 1.2-.4.9-1 1.9-1.2 2.9-.7 2.6-1.3 5.3-2.8 7.6-.1.1 0 .2 0 .3.1.1.3.1.4 0 .2-.2.5-.4.8-.7-.2.8-.7 1.5-1.3 2.2-.3.4-.8.9-1.5.6-.5-.2-1 .3-1.5.4-.9.2-1.7.3-2.2-.5-.3-.5-.9-.7-1.4-.5-.9.1-1.3-.3-1.8-.9-.8-.9-1.3-1.9-1.3-3-.1-.7-.2-1.1-.9-1.3-1.3-.7-1.9-2-2.1-3.4-.1-1-.1-1.9.1-2.9.8-3.7 2-7.4 3.7-10.9 1-2.1 1.2-4.4 2.4-6.5.1-.2 1-2.8 1-3 .7-3.4.7-4.9 2-8 .9-2.3 1.1-5 2.1-7.3.9-1.9 1.8-3.6 2.6-5.5 1.9-4.4 4.4-8.4 6.6-12.5.4-.9 1.1-1.8 1.7-2.6.2-.2.4-.5.7-.9.3-.5 2.1 0 1.5-.3-.2-.1-.4-.1-.8-.2.4-.2.8-.2 1.1-.3.1-.1.2-.2.2-.3s-.1-.2-.2-.2c-.2-.1-.4-.1-.7-.1-4 .2-7.9.8-11.8 1.3-1 .1-1.9.2-2.8.3h-1c-.2-.1-.4-.2-.4-.4 0-.1.1-.3.2-.3.3-.1.7-.2 1-.2 2.9-.2 5.6-.8 8.4-1.1 2.6-.3 5.4-.7 8-.8.8 0 1.4 0 2.1-.3.2-.1.3-.3.2-.5 0-.1-.2-.2-.3-.2-.2-.1-.5-.1-.8-.1-5.5.2-11 .8-16.4 2.1-.9.2-1.8.3-2.6.2-1.2-.1-2-1-1.2-2.2.1-.1.1-.2.2-.3.3-.3.3-.7 0-1.1-.7-1-.3-1.9.4-2.6.4-.4 1-.8 1.7-1 3.1-1.2 6.2-2.4 9.6-2.9.2 0 .5-.1.8-.1 1.8.1 3.5-.3 5.2-.8 1.4-.4 3-.7 4.5-.7 2.9-.1 5.7-.3 8.6-.4 1 0 2 0 2.9.1 2.9.3 5.7.7 8.5 1.3 5.1 1.1 9.5 3.4 12.7 7.5 1.8 2.2 3.1 4.5 3.7 7.3.5 2.9 1.3 5.8 1.4 8.8.1 2.2.1 4.4-.2 6.5-.1.5-.1 1.1-.4 1.6-1.1 2.2-2.2 4.4-4 6.4-1 1.2-2.4 2.2-3.1 3.8-.3.8-1.2 1.1-2 1.5-.4.2-.8.5-.7 1.1-1 .9-2 1.8-3.1 2.5-1.4 1.1-2.9 2.2-4 3.6-.7.8-1.7 1.3-2.5 1.8-.4 0-.5.1-.4.4-.5.4-1.1.9-1.6 1.2v.1h-.9v-.3c-.4.2-1 .3-1.4.5-.4.1-.3.4.2.8h-.1c-1 .9-2 1.4-3.3 1.3-.7-.1-.9.1-1 1 0 .5-.7 1-.3 1.6.3.6 1 .7 1.5 1 3 1.7 6.3 2.9 9.5 4.2 1 .3 1.9.8 2.5 1.4.7.8 1.5 1.2 2.4 1.6 1.3.6 2.4 1.4 3.5 2.2 1.2.9 1.8 2.1 2 3.5.1.4-.1.8-.7.9-.7.1-.8.4-.8 1 .1.6.4 1 .7 1.5.3.7.6 1.3.6 2.2 0 .9-.6 1.4-1.4 1.2-.4 0-.9-.2-1.4-.3-.3-.1-.8-.6-1-.1-.2.3.4.7.7 1 .2.1.3.2.5.3.4.3 1.2.6 1.1 1.1-.1.8-1 .4-1.5.5-1.3.3-2.1.1-2.9-.5zm-39.4-77c2-.3 3.8-.7 5.8-.9 5.7-.8 11.4-1.1 17.3-.9 1.6 0 3.3 0 4.9.2 1.2.2 2.3.2 3.6.3-.2-.7-.8-.5-1.1-.7-3-.5-5.9-1-8.9-1-6.2-.1-12.2.5-18.3 1.5-1.4.2-2.8.6-4.2.9 0 0-.1.2-.2.3.1 0 .2.1.3.1.4.3.6.2.8.2zm.6 73v.1c-.1.2-.3.5-.4.8 0-.3.1-.6.4-.9zm0 0v.1-.1zm12.2-73.2c4-.3 8-.2 12.1-.8-.3 0-.5-.1-.9-.1-3.5-.2-7.2-.2-10.8 0-3.5.1-7 .8-10.6 1.3-.5.1-1.1.2-1.5.3-.1.1-.2.1-.2.2 0 0 0 .1.1.2 3.9-.3 7.8-.8 11.8-1.1zm24.6 72.7c0-.1-.1-.2-.1-.3-.4-.2-.8-.4-1.1-.7-4.7-2.3-9.6-4.5-14.5-6.4-2-.7-4-1.5-5.8-2.2-3-1.1-5.9-2.2-8.9-3.2-.3-.1-.7-.2-1 0-.1 0-.1.2-.1.3.2.4.8.5 1.1.8 2.8 1.3 5.5 2.3 8.4 3.3 5.6 2 11.1 4.1 16.6 6.4 1.2.6 2.4 1.2 3.6 1.7.4.2 1 .4 1.5.6l.3-.3zM368 113.9l-.1.1.1.1v-.2zm2.3 10.4l.1.1-.1-.1zm.2.1h-.1.1zm2.2.8s.1 0 .1.1c0-.1-.1-.1-.1-.1zm.2.1h-.1.1zm-3.4-22.1c2.2-1.1 4.5-2 6.4-3.6 1-.8 8-5.5 9-6.3 2.1-1.5 4.3-3.1 6.3-4.8 2.5-2.2 5.1-4.4 7.1-7 1.2-1.5.5 1 1.7-.5.3-.3.5-.7.8-1-3.1 3.1.7-1.6-.4-2.8-1.5-1.5-1.4-6.8-3.5-7.7-1.4-.5-2.9-1-4.3-1.5-1.8-.8-3.5-1.2-5.5-1.2-.3 0-.9 0-.9-.2-.3-.6-.8-.6-1.3-.4-2.2.3-2.4.5-1.9 2.9.1.9-3.8 1.6-4.1 2.4-.4 1.4-.8 2.9-1.3 4.2-.1.2-.1.5 0 .5.2.2.3 0 .4-.2.3-.4.6-1 .9-1.4.1-.2.3-.4.7-.4.4.2.4.5.3.9-.1.8-.3 1.5-.7 2.2-.3.5-.7 1.2-.7 1.8-.1 1-.9 1.7-.9 2.4 0 1.2-.9 1.8-1.2 2.6.2.7 0 1.2-.2 1.9-.4.9-.8 1.8-1.1 2.6-.6 1.1-2.9 6.4-4.3 6.9l-.1.1c-.1.2-.3.6 0 .8.5.3.4.8.2 1.2-.7 1.3-1.3 2.5-2 3.7-1.2-3-.4 1-.5 1.5-.1.4.3.9.8.8.1-.3.2-.4.3-.4zm.1-5.1c.1-.2.2-.4.2-.8-.1.2-.3.4-.4.7 0 0-.1.1 0 .2s.2.1.2-.1zm14.2 22.1h-.1c-.6-.5-1.3-.8-2.1-.9-.5-.6-1.3-.8-2.1-.8-.8-.8-1.8-1.2-2.9-1.5-.1 0-.2.1-.3.1 0 .1 0 .3.1.3 1 .7 2 .9 3.1 1.1.7.4 1.3.8 2.1.8.7.5 1.3.8 2.1.9h.1zm12.1 3.5c-.6-.5-1.2-.8-1.9-1.1-2.8-1.3-5.6-2.5-8.4-3.7-2.3-1-4.6-2-6.9-2.9-.3-.1-.7-.2-1-.2-.1 0-.3.1-.3.2-.1.1 0 .3.1.3.5.3 1.2.7 1.8.9 4.4 1.9 8.8 3.7 13.1 5.5.9.4 1.8.8 2.8 1.1.2.1.4.2.7-.1zm-19.7-44.3l-.1-.1c-.1 0-.2.1-.2.2l.1.1c.1-.1.1-.2.2-.2zm12.6-15.3l.1-.1c0-.1 0-.3-.1-.3-.3-.2-.8-.4-1.1-.4-1.9-.3-3.6-.5-5.3-.9-.5.1-.9.1-1.3.2-.1 0-.2.2-.2.3s0 .2.1.3c.2.1.4.1.5.2 2.2.2 4.4.4 6.6.7h.7zm-5 64.5c-.4-.1-.9-.3-1.3-.4h-.1.1c.5 0 .9.1 1.3.4.7.4 1.4.8 2.6 1-.9-.8-1.8-1-2.6-1zm2.1-7.6h-.1l.1.1c.2.1.6.2.8.3-.2-.1-.6-.2-.8-.4zm2.4-12.1c-.1.2-.2.3-.3.4h-.1c.2-.1.3-.3.4-.4zm.9-.4l-.9.3c.4 0 .6-.1.9-.3zm0-.4h.9c-.3.1-.7.2-.9.3v-.3zm.6 14.6h-.1.1zm2.4-16.4l-.4.4c.1 0 .2-.1.4-.4zm6.4 19l-.1-.1c-.3-.1-.5-.2-.9-.3.2.1.5.2.9.4h.1zM422.8 138c-.3-.9-.4-1-1.3-.9-.3.1-.5.1-.8.2-.7.1-1.1-.1-1.5-.5-.5-.6-1-1.2-1.2-2-.3-1.1-1-2.1-1.9-2.9-.8-.7-1.2-1.5-1.4-2.5-.2-1.3-.3-2.6 0-4 .4-2.9.9-5.6 2.1-8.4.4-1 .7-2.2.9-3.3 1-3.3 2.3-6.5 3.4-9.7.5-1.5 1.1-3.1 1.5-4.6.7-2.3 1.5-4.6 2.5-6.8l3.3-8.4c.8-2.1 1.9-4.1 2.5-6.2.4-1.1 1.1-2.1 1.7-3.1 1.2-2 2.2-4 3.1-5.9.4-.9 1-1.5 1.4-2.4.3-.7 0-1.3-.8-1.3s-1.5.1-2.3.2c-3.3.8-6.7 1.4-10 2.2-.9.2-1.9.3-2.9.2.7-.2 1.3-.4 2-.5 4.3-1 8.6-2.1 13-2.9.1 0 .1-.1.2-.1 1.2-.2 1.9-.7 1.7-1-.7-.4-1.2 0-1.9.1-5.1.9-10.2 2.2-15.3 3.4-.7.1-1.3.3-2 .2-.4-.1-.8-.2-.9-.5-.2-.4.1-.7.4-.9.1-.1.2-.1.3-.2 0-.1.1-.3.1-.3-.1-.2-.2-.3-.4-.4-.4 0-.9 0-1.2-.1-.9-.1-1.3-.4-1.3-1.3-.1-.3-.1-.8 0-1.2.4-1.4.3-2.9.2-4.3-.1-2.1.8-4 2.6-5.1 1.4-.9 2.9-1.8 4.5-2.2 3.6-1.1 7.4-2 11.2-2.6 1.2-.1 2.4-.3 3.6-.8.4-.1 1-.2 1.4-.2 1.3.1 2.6-.1 4-.4 1.2-.3 2.4-.4 3.6-.7 3.7-.5 7.4-.8 11-1.1 4.3-.3 8.5-.7 12.8-.6 1.8 0 3.5.2 5.2.8 1.6.5 2.9 1.7 3.7 3.2.2.3.4.8.2 1.2-.3 1.2.4 2.2.9 3.3.3.7.9 1.3 1.1 2 .5 1.1.4 1.6-.7 2.5-.1.1-.3.2-.4.3-.3.3-.3.7 0 .9.2.3.5.4.9.7.3.3.2.8-.2 1-1.2.7-2.4 1-3.7.5-1.4-.5-2.8-.4-4.2-.5-3-.1-5.9.2-8.9.4-1.3.1-2.6.4-4 .7-1.5.2-3 .3-4.5.5-1.4.2-1.6.6-1.8 1.9-.2 2.1-.8 4.2-1.8 6 0 .1-.1.3-.2.6-.1.2-.2.5.1.8.2.1.3 0 .5-.1s.3-.2.6-.3c.2-.1.5.2.5.4 0 .1 0 .2-.1.2-.7 1.1-.9 2.3-1.1 3.5-.3 1.2-.8 2.4-1.4 3.4-.1.1-.2.3-.2.4.2 1.8-1 3-1.9 4.3v-.1c.3.9 0 1.4-.4 2.1-.3.1-.7.2-.8.4h-.1c.3-.1.7-.2.9-.4-.6 1.3-1.2 2.4-2.1 3.5-.5.8-1.1 1.5-1.2 2.4h.4-.1c-.4 2.4-1.6 4.5-2.9 6.6-1.1-.1-1.5.8-2.1 1.5-.1.2-.2.5.1.7.1.1.3 0 .4-.2.5-.7 1.1-1.3 1.5-2-.2 1.2-.7 2.3-1.3 3.3-.7 1.1-1.2 2.3-1.7 3.5-1.3 3.5-2.9 6.8-4.4 10.1-.7 1.3-1.1 2.8-1.7 4.1-1.4 3.7-2.9 7.4-4.4 11.1-.1.3-.2.9-.8.5v.1c-.4.3-.8.9-.5 1.4.2.9.1 1.6-.2 2.4-.4 1-.4 2.1-.7 3.1-.2 1-.4 1.2-1.4 1.1-.8-.1-1.4.2-2.2.4-.3.5-.5.4-.8-.4zm-2.2-79.5c.1-.1.3-.2.4-.3h.1-.1c-.1.1-.3.1-.5.1-.1.1-.1.2-.2.2.1 0 .2.1.3 0zm1.4 6.4c5.7-1.6 11.5-2.7 17.3-3.8.5-.1 1-.3 1.4-.5.1-.1.2-.3.2-.4 0-.3-.1-.4-.3-.4-.4 0-.9 0-1.3.1-3.1.7-6.3 1.2-9.4 2-2.4.5-4.8 1.2-7.3 1.9-.5.2-1.1.3-1.4.9-.1 0 0 .2 0 .3l.1.1c.3-.2.5-.2.7-.2zm7.8-10.4c3-.5 5.9-1.2 9-1.7 6.8-1.2 13.8-2.2 20.7-2.6 4.5-.3 9-.8 13.5-.7.3.1.6.1.9 0 .2 0 .7 0 .7-.3 0-.2-.3-.3-.5-.4-.4-.1-.9-.1-1.4-.2-1.3-.1-2.8-.1-4.2-.2-2.1 0-4.2.3-6.2.4-5.1.2-10 1-15 1.6-3.7.6-7.5 1.2-11.1 1.8-3.3.7-6.5 1.3-9.6 2.2-.3.1-.8.1-.7.7 0 .1.5.1.8.1 1-.2 2-.4 3.1-.7zm21.6-1.7c7.7-1 15.4-1.5 23.1-1.9-2.2-.4-4.4-.8-6.6-.7-4 .2-7.8.4-11.7 1-3.5.4-7 1-10.6 1.4-5.6.8-11 1.9-16.4 3.2-.3.1-.8 0-.8.7 7.8-1.3 15.4-2.9 23-3.7zm-19.3 69.5c.1-.2.2-.4.2-.7v-.2c-.2-.1-.3-.1-.3 0-.2.2-.3.4-.3.8-.1 0 0 .2.1.3.1-.1.2-.1.3-.2zm1.1-3.5l-.1-.1-.1.1c0 .1.1.1.1.1.1 0 .1-.1.1-.1zm2.8-6.7c0-.1.1-.2.1-.3l.3-.3v-.1c0-.1-.1-.1-.2.1 0 .1 0 .2-.1.3 0 .1-.1.1-.2.2 0 .1-.1.1-.1.2.1.1.1 0 .2-.1zm2.7-6c.1-.1 0-.2-.1-.2s-.1 0-.1.1c-.1.1-.2.2-.2.3 0 .2.1.2.2.1.1 0 .2-.2.2-.3zm5.3-11.5c.1-.1 0-.2-.1-.2-.2 0-.3.2-.3.4-.1.1 0 .2.1.2.2-.1.3-.2.3-.4zm11.6-36.1c5.5-.8 10.9-1.2 16.4-1.2 1 .1 1.9 0 2.8-.1.3 0 .7 0 .9-.6-1.8-.8-3.5-1-5.4-.9-5.4.2-10.8.8-16.1 1.4-.3.1-.7.1-1 .2-.4.1-1 .2-.9.7.1.5.7.5 1 .5.7.3 1.5.1 2.3 0zm6.2 1.9c2.1-.3 4.3-.5 6.6-.4h1.1c1 0 1.9.1 2.9-.2.1 0 .2-.1.3-.2 0-.3-.2-.4-.4-.4-3.4 0-6.8 0-10.1.3-1.5.2-3 .4-4.4.7-.8.1-1.4.2-2.2.4-.1 0-.2.2-.2.3s.2.2.3.2c.2.1.4.1.5.1 1.9-.3 3.8-.4 5.6-.8zM183.6 58.5s1-.2 2.3-.4c0-.1.1-.3.1-.4-.7.3-1.5.6-2.4.8zM183.8 59c.2.1.4 0 .7-.1.5-.1 1-.3 1.5-.4-1.4.3-2.3.5-2.2.5zM181.6 133.4c-.2.3-.3.7-.4.9l.4-.8v-.1zM186.8 59.5s-.3 0-.6.1c-.1-.1-.2-.3-.2-.4-.2.1-.3.1-.5.2-.1.1-.2.1-.2.2 0 0 0 .1.1.2.3-.1.6-.1.8-.2.2 0 .4 0 .6-.1zM188.3 63.9c.1 0 .1-.1.2-.1-1.2.2-3.7.7-1.9.5.5 0 1-.1 1.4-.2-.3-.1-.3-.1.3-.2z"/><path class="st6" d="M228.7 74.5c-.4-2.9-1.4-5.8-2.2-8.6-.9-2.7-2.4-4.9-4.4-6.9-3.5-3.8-8.1-5.7-13.3-6.3-2.8-.4-5.7-.5-8.6-.6-.9 0-1.9.1-2.9.1-2.8.4-5.7.8-8.5 1.2-1.5.1-3 .5-4.4 1.1-.8.3.7.1 2.1-.1-.5.4 4 .3 1.5 1.5-.6.3-1.2.7-1.6 1.1-.2.2-.3.5-.5.7.5-.2 1.1-.3 1.6-.5 5.9-1.5 2-.8 8.2-1.3 3-.3 6-.1 9 .2.3.1.9-.1 1.2.6-1.3 0-2.4.1-3.6 0-1.7-.1-3.3.1-4.9.2-5.1.3-2.5-.5-5.5.1-1.1.2-3.8.6-5.9 1 0 .1 0 .2-.1.4.3-.1.5-.1.8-.2-.3.1-.5.1-.8.2 0 .2 0 .5.1.7.3-.1.7-.2 1-.3 1.5-.4 1.2-.4.6-.4 3.6-.5 7.2-.9 10.7-1 .3 0 .6.1.9 0-4 .9-8.1 1.2-12 1.8-.2 0-.3.1-.4.1 0 0-.1 0-.5.1 0 0 0 .1.1.1.4.4.4.7.1 1.1-.1.1-.1.2-.2.3-.4.8-.2 1.4.3 1.8-.3.1-.3.1.2.1.3.1.6.2.9.2.4 0 .8 0 1.1-.1.1.2 0 .4-.2.6 0 0-.1 0-.1.1.6-.1.9-.1 0 .1h-.2c-.1 0-.2.1-.3.1.7-.1 3.2-.5 1.2-.1-.3 0-.6.2-1 .3-.1 0-.2.2-.2.3 0 .2.1.3.3.3-2.7.5-5.2 1-3.3.7.2 0 .4 0 .7.1.1 0 .2.1.2.2s-.1.2-.2.3c-.3.1-.6.2-1.1.4.3.1.6.1.8.2.7.3.9.7.7 1.3-.2.3-.4.7-.6.9-.5.9-1 1.9-1.4 2.8-1.8 4.4-4 8.5-5.5 13.1l-2.1 5.7c-.8 2.4-1.3 4.9-2 7.2-1 3.2-2.4 6.4-2.8 9.9 0 .2-.1.6-.2.8-1 2.2-1.6 4.4-2.4 6.6-1.4 3.7-2.3 7.4-2.8 11.2-.1 1-.1 1.9.1 2.9.3 1.4 1 2.7 2.4 3.2.7.2.8.6 1 1.2.1 1.1.7 2 1.6 2.8.5.5 1 .9 1.8.7.5-.2 1.1-.1 1.5.4.6.8 1.4.6 2.2.4.5-.2.9-.7 1.5-.6.8.3 1.2-.2 1.5-.7.6-.7 1-1.5 1.1-2.3l-.7.7c-.1.1-.3.1-.4 0 0-.1-.1-.2 0-.3 1.2-2.4 1.6-5.1 2.1-7.8.1-1 .6-2 .9-3 .3-.7.7-1.1 1.3-1.3 1.2.9 2.6 1.2 4 1.7.3.1.7.2 1-.1.7-.6 1.6-.3 2.4-.1 1.4.3 2.7.5 4.1 1 .7.2 1.9.1 1.9 1.4 0 .1.3.2.6.3.7.2 1.3.2 2 .4-.1-.1-.1-.3-.1-.4 0-.1.1-.2.1-.2.1-.1.3 0 .3.1.1 0 .1.2 0 .3-.1.1-.2.1-.3.1 3.2 1.4 6.5 2.3 10 2.8 1.3.2 2.6.3 3.6 1.4.2.3.7.4 1.1.4.2-.1.5-.3.8-.1 1.4 1.2 3.2 1.5 4.8 2.3.8.5 1.7.6 2.7.4.5-.2 1.4.1 1.5-.7.1-.6-.7-.7-1.2-1-.2-.1-.3-.2-.6-.3-.2-.3-.9-.6-.7-.9.2-.5.7-.1 1 0 .6.1 1 .2 1.5.2.9.1 1.4-.5 1.3-1.3-.1-.9-.4-1.5-.7-2.1-.3-.5-.6-.9-.8-1.5 0-.5 0-.9.7-1.1.5-.2.7-.5.6-.9-.3-1.4-1-2.6-2.3-3.3-1.2-.7-2.3-1.4-3.7-1.9-.9-.4-1.8-.7-2.6-1.4-.7-.6-1.6-1-2.6-1.2-3.3-1-6.7-1.9-9.8-3.3-.6-.3-1.2-.3-1.6-.8-.4-.6.2-1.1.2-1.7 0-.9.2-1.1.9-1.1 1.3 0 2.3-.6 3.2-1.6h.1c.1-.1.2-.2.3-.5-.1.1-.2.3-.4.4-.5-.3-.6-.6-.2-.7.4-.3 1-.4 1.4-.7v.4c.2-.1.5-.3.8-.4v-.1c.5-.4 1-.9 1.5-1.4-.1-.3 0-.4.4-.5.8-.5 1.8-1.2 2.4-2 1-1.5 2.3-2.7 3.6-4 1-.9 1.9-1.8 2.8-2.8-.2-.5.1-.9.6-1.2.7-.5 1.6-.9 1.8-1.7.5-1.7 1.8-2.8 2.7-4.1 1.6-2.1 2.5-4.4 3.4-6.7.3-.6.2-1.1.3-1.7.2-1.5 0-3.7-.3-5.9zM175.2 117h-.5l6-20h.5l-6 20zm6.5-28l-7.5 23c-.6-.6-.3-1.5-.1-2.3l7.4-23.1c.1-.4.3-.7.6-.9l.6-.6-1 3.9zm14.7-26.5c.4-.1.8-.2 1.3-.3 1.7.2 3.4.2 5.3.4.3 0 .8.2 1.1.3.1 0 .1.2.1.3l-.1.1c-.2 0-.4 0-.7.1-2.2 0-4.4 0-6.6-.1-.1-.1-.3-.1-.6-.2-.1-.1-.1-.2-.1-.3.2-.1.2-.3.3-.3zm.7 16.8c-.1 0-.1.1-.2.2l-.1-.1c0-.1.1-.2.2-.2l.1.1zm-3.5 15c.1-.2.3-.5.4-.7 0 .3-.1.6-.1.8 0 .2-.1.2-.2.1-.2-.1-.1-.2-.1-.2zm-5.6 20.5v.2l-.1-.1.1-.1zm17.1 13.2c.8-.1 1.7.1 2.7.7-1.2-.1-2-.3-2.7-.7zm14.3-4.7l.1.1h-.1c-.3-.2-.7-.3-.9-.4.3.1.5.2.9.3zm-1.3 6c0 .1.1.2.1.3-.1.1-.2.2-.3.2-.6-.1-1.1-.2-1.6-.4-1.2-.3-2.5-.9-3.8-1.3-5.7-1.8-11.3-3.4-17.1-4.9-2.9-.7-5.8-1.5-8.6-2.5-.3-.2-.9-.3-1.2-.7 0-.1 0-.3.1-.3.3-.2.6-.2 1-.1 3 .7 6.1 1.6 9.2 2.4 1.9.5 4 1.2 6 1.7 5.1 1.4 10.1 3.2 15 5.1.4.2.8.4 1.2.5zm-21.5-12.1c.1 0 .2-.1.3-.1 1.1.2 2.2.6 3 1.3.8-.1 1.6.1 2.2.6.8 0 1.6.2 2.2.7-.8 0-1.5-.2-2.2-.7-.8.1-1.5-.2-2.2-.6-1.1-.1-2.1-.3-3.2-.8-.1 0-.1-.2-.1-.4zm9.8 3h.1c.2.2.6.3.8.4-.2-.1-.6-.2-.8-.3l-.1-.1zm-.3-2c2.8 1 5.8 1.9 8.7 3 .7.3 1.4.4 2 .9-.3.4-.5.3-.8.2-1-.2-1.9-.5-2.8-.8-4.4-1.4-9-2.8-13.5-4.3-.6-.2-1.3-.4-1.8-.7-.1 0-.2-.2-.1-.3 0-.1.2-.2.3-.2.3 0 .7.1 1 .1 2.2.5 4.6 1.3 7 2.1zm13.1-44.4c-.2.3-.4.7-.7 1.1-1.1 1.6-2.3 3.2-3.3 4.8-1.8 2.8-4.2 5.2-6.5 7.7-1.8 1.9-3.9 3.7-5.8 5.4-.9.9-1.8 1.7-2.8 2.6-1.7 1.8-3.9 2.9-6 4.2-.1 0-.2.1-.3.1-.4.1-.9-.3-.8-.7.1-.6.2-1 .4-1.6.5-1.3 1.1-2.5 1.6-3.9.2-.5.3-.9-.3-1.2-.3-.2-.2-.5-.1-.8l.1-.1c1.4-.6 1.6-1.9 2-3.1.3-.9.5-1.8.9-2.7.2-.7.3-1.2.1-1.9.3-.9 1.1-1.5 1-2.7-.1-.8.6-1.5.7-2.5 0-.5.2-1.2.5-1.8.3-.7.4-1.5.5-2.3.1-.3.1-.7-.4-.8-.3 0-.5.3-.6.5-.3.5-.5 1-.7 1.5-.1.2-.2.5-.4.3-.1 0-.1-.3 0-.5.4-1.4.6-2.8.9-4.3.3-.8.1-1.6-.1-2.4-.8-2.3-.6-2.5 1.6-3 .5-.2 1-.2 1.4.3 0 .2.6.2.9.1 2-.2 3.8.1 5.6.7 1.5.4 2.9.7 4.4 1.2 2.2.8 4.1 1.8 5.8 3.2.9.9 1 1.3.4 2.6z"/></g></svg>