<?xml version="1.0" encoding="utf-8"?>
<!-- Generator: Adobe Illustrator 19.1.0, SVG Export Plug-In . SVG Version: 6.00 Build 0)  -->
<svg version="1.1" id="Слой_1" xmlns="http://www.w3.org/2000/svg" xmlns:xlink="http://www.w3.org/1999/xlink" x="0px" y="0px"
	 viewBox="0 0 482.3 139.7" style="enable-background:new 0 0 482.3 139.7;" xml:space="preserve">
<style type="text/css">
	.st0{fill:url(#SVGID_1_);}
	.st1{fill:#0E3A58;}
	.st2{fill:#969CB3;}
	.st3{fill:#717588;}
	.st4{fill:#AFB9D2;}
	.st5{fill:url(#SVGID_2_);}
	.st6{fill:#647BBC;}
</style>
<g>
	<g>
		<g>
			<g>
				<g>
					<linearGradient id="SVGID_1_" gradientUnits="userSpaceOnUse" x1="39.9503" y1="3.405982e-006" x2="39.9503" y2="93.0434">
						<stop  offset="0" style="stop-color:#7698B3"/>
						<stop  offset="1" style="stop-color:#4E5EAB"/>
					</linearGradient>
					<path class="st0" d="M3.1,64.3c2.3-7.7,11.2-20.9,11.2-20.9S36.7,13,48.7,0c2,27,13.9,43.8,25,64.5c3.8,7.1,4.1,15.3,1.3,23.2
						c-0.8,0.2-1.8,0.2-2.3,0.7c-5.5,4.8-11.6,6.2-18.3,2.8c-6.8-3.5-8.3-9.7-8.2-16.7c0.1-5.8,0.1-11.6-0.2-17.3
						c-0.2-4.7-3.4-7.4-7.6-8.7c-4.1-1.3-7.6,0-10.4,3.2c-3,3.3-3.3,7.4-3.2,11.6c0.2,6-2.3,10.3-8.4,11.3C8.5,75.9,5,71,3.1,64.3z"
						/>
					<path class="st1" d="M3.1,64.3C5,71,8.5,75.9,16.4,74.5c6.1-1,8.6-5.3,8.4-11.3C24.7,59,25,55,28,51.6
						c2.8-3.2,6.3-4.5,10.4-3.2c4.2,1.3,7.4,4,7.6,8.7c0.3,5.8,0.3,11.6,0.2,17.3c-0.1,7,1.4,13.3,8.2,16.7c6.7,3.4,12.8,2,18.3-2.8
						c0.6-0.5,1.5-0.5,2.3-0.7c-3.6,14.9-13.9,23.2-27.7,28.1c-0.6-0.2-1.1-0.1-1.5,0.2c-0.9,0.1-1.9,0.3-2.8,0.4
						c-1.7,0.1-3.4,0.2-5.1,0.3c-2.9-0.3-5.9-0.6-8.8-1C4.3,105.5-5.6,85.9,3.1,64.3z"/>
				</g>
			</g>
			<g>
				<polygon class="st2" points="36.1,111.4 20.4,111.4 25.6,119.5 38.7,119.5 51.7,119.5 56.9,111.4 				"/>
				<path class="st3" d="M25.6,132.8l3.7,3.8c1,1,2.3,1.6,3.7,1.6h11.3c1.4,0,2.7-0.6,3.7-1.6l3.7-3.8H25.6L25.6,132.8z"/>
				<path class="st4" d="M51.7,116.8h-13h-13c-1.4,0-2.6,1.2-2.6,2.7c0,1.5,1.2,2.7,2.6,2.7h13h13c1.4,0,2.6-1.2,2.6-2.7
					C54.3,118,53.2,116.8,51.7,116.8z"/>
				<path class="st4" d="M51.7,127.5h-13h-13c-1.4,0-2.6,1.2-2.6,2.7s1.2,2.7,2.6,2.7h13h13c1.4,0,2.6-1.2,2.6-2.7
					C54.3,128.7,53.2,127.5,51.7,127.5z"/>
				<path class="st2" d="M51.7,122.1H25.6c-1.4,0-2.6,1.2-2.6,2.7v0v0c0,1.5,1.2,2.7,2.6,2.7h13c0,0,0,0,0,0h13
					c1.4,0,2.6-1.2,2.6-2.7C54.3,123.3,53.2,122.1,51.7,122.1z"/>
			</g>
			<linearGradient id="SVGID_2_" gradientUnits="userSpaceOnUse" x1="29.9035" y1="82.5027" x2="37.9171" y2="82.5027">
				<stop  offset="0" style="stop-color:#7698B3"/>
				<stop  offset="1" style="stop-color:#4E5EAB"/>
			</linearGradient>
			<path class="st5" d="M29.9,85.3c-0.2,2.8,1.2,4.6,3.8,4.7c2.6,0.1,4.2-2.1,4.2-4.1C38,83.3,33.7,75,33.7,75S30.1,83.3,29.9,85.3z
				"/>
		</g>
		<g>
			<path class="st6" d="M124.8,137.1c-0.9-0.4-1.7-1-2.4-1.7c-2.2-2.2-4.3-4.4-6.1-6.9c-2.1-2.9-3.2-6.2-3.4-9.7
				c-0.1-1.5-0.2-3.1-0.3-4.6c0-0.2,0-0.5,0.1-0.8c0.2-2.2,0.4-4.5,0.8-6.7c0.3-2,0.8-4,1.3-5.8c0.6-2.4,1.1-4.7,2.4-6.9
				c0.1-0.2,0.2-0.4,0.3-0.8c0.9-3.1,2.8-5.8,4-8.9c0.2-0.6,0.6-1.1,0.9-1.7c1.8-2.8,3.3-5.5,4.8-8.3c0.7-1.3,1.5-2.4,2.4-3.4
				c2.3-2.6,4.4-5.4,6.7-8c0.1-0.2,0.2-0.6,0.4-0.7c2.6-2.1,4.4-5,6.9-7c0.1,0,0.2-0.1,0.3-0.2c2.3-1.7,4.5-3.4,6.9-5
				c2.2-1.4,4.7-2.1,7.3-2.5c1.9-0.3,3.6,0.1,5.2,1.1c1.9,1.1,3.5,2.5,4.7,4.4c1.4,2.2,2.8,4.5,3.6,7c1.2,3.1,1.5,6.4,0.8,9.6
				c-0.4,2-1,3.9-2.2,5.4c-0.7,0.9-1.1,1.8-1.4,2.8c-0.3,0.6-0.6,1.1-0.9,1.8c0-0.1,0-0.1-0.1-0.2c0,0,0,0-0.1,0
				c0.1,0,0.2,0.1,0.2,0.1c-0.3,0.5-0.9,0.9-1.5,1.1c-0.6,0.3-1.1,0.8-1.3,1.4c-0.2,0.1-0.3,0.3-0.4,0.4c-0.9,0.2-1.6,0.8-2.4,1.2
				c-0.3,0.1-0.5,0.2-0.8,0.3c-0.2,0-0.4,0-0.6-0.1c-0.2-0.2-0.1-0.4,0-0.6c0.2-0.3,0.6-0.5,0.7-0.8c0.1-0.1-0.1-0.3-0.1-0.3
				c-0.7-0.1-1.1,0.2-1.7,0.4c-0.9,0.2-1.5-0.1-1.7-1c-0.1-1.1-0.2-2.2-0.8-3.2c-0.3-0.4-0.2-1.1,0-1.7c0.2-0.7,0.5-1.2,0.9-1.9
				c1-1.9,2.1-3.7,3.2-5.6c0.9-1.8,1.3-3.7,2.1-5.6c0.3-0.8,0.7-1.7,0.9-2.4c0.3-1.1-0.1-1.5-1.1-1.3c-1,0.2-2,0.4-2.9,0.7
				c0.4-0.2,0.9-0.5,1.4-0.8c0.1-0.1,0.3-0.3,0.1-0.6c0,0-0.2-0.1-0.3,0c-3.1,0.9-5.6,2.5-7.5,5.2v-0.1c-0.9,0.3-1.4,0.9-2,1.5
				c-1.1,1.2-2.2,2.4-3.4,3.6c-1.1,1.1-2.1,2.4-3,3.7c-0.8,1.1-1.7,2.2-2.4,3.3c-0.9,1.1-1.9,2.3-2.2,3.7c-0.1,0.1-0.3,0.2-0.4,0.4
				l-0.1,0.1c0.1,0.1,0.2,0.1,0.2,0c0.1-0.2,0.2-0.4,0.3-0.5c0.4-0.3,0.9-0.5,1.1-0.8c-0.8,2-1.9,3.6-3.2,5.4c0-0.3,0-0.6,0-0.9
				c0.1-0.2,0.2-0.5,0.4-0.8c-0.1,0.2-0.3,0.6-0.4,0.8c-0.8,0.6-1.4,1.2-1.8,2c-0.1,0.2-0.1,0.6,0.1,0.4c0.8-0.2,1,0,0.7,0.7
				c-0.4,0.7-0.9,1.4-1.5,2c-0.1,0-0.3,0-0.4,0c-0.4,0.4-0.7,1-0.8,1.7c0.3-0.6,0.7-1.1,0.8-1.7c0.1,0,0.3,0,0.4,0
				c-0.4,2-1.3,3.7-2.5,5.4c0-0.1,0.1-0.3,0.1-0.6c0-0.1,0-0.3-0.1-0.3c-0.1-0.1-0.3,0-0.3,0c-0.3,0.2-0.4,0.6-0.4,0.9
				s0.2,0.3,0.4,0.2c0.1,0,0.2-0.1,0.3-0.2c-0.1,0.9-0.5,1.5-1.2,2.1c-0.1,0-0.3,0-0.4,0c-0.3,1-0.8,2-1.1,3
				c-0.2,0.4-0.5,0.9,0.2,1.1c0.1,0,0.2,0.2,0.1,0.3c0,0.3-0.1,0.5-0.1,0.9c0,1.3-1.8,1.8-1.4,3.2c0.2,1.2-0.4,2.3-0.7,3.5
				c-0.2,1.2-0.5,2.4-0.8,3.6c-0.5,2.8-1,5.6-1.1,8.5c-0.1,1.9,0.1,3.7,0.2,5.6c0,0.2,0.1,0.4,0.1,0.7c0.4,1.4,1,1.8,2.5,1.5
				c2-0.4,3.8-1.4,5.7-2.4c2.6-1.5,5-3.6,7.3-5.6c3-2.4,5.7-5.1,8.5-7.8c1.3-1.3,2.5-2.9,3.7-4.4c0.7-0.8,1.4-1.1,2.4-1
				c0.2,0,0.5,0.2,0.4,0.5c-0.2,0.9-0.3,1.8-0.5,2.6c0.4-0.4,1-0.8,1.4-1.1c1.1-0.7,2.1-0.1,2.2,1.1c0,0.6,0,1-0.1,1.4
				c0,0.3-0.1,0.7-0.2,1c-0.1,0.3-0.2,0.7-0.3,0.9c-1.2,0.9-2.1,2-2.9,3.1c-1.1,1.2-2.1,2.4-3.2,3.6c-3.6,4.1-7.7,7.8-12,11.2
				c-0.4,0.4-0.9,0.9-1.3,1.3v0.3c0.1,0.1,0.3,0.1,0.4,0.1c0.9-0.3,1.5-0.9,2.2-1.4c4.4-3.3,8.3-7.2,11.8-11.3
				c1.8-2.1,3.6-4.3,4.9-6.9c0.1-0.2,0.2-0.6,0.3-0.9c0.2,0,0.4-0.1,0.6-0.2c0.5-0.1,0.9,0.1,0.7,0.4c-0.2,0.7-0.4,1.2-0.8,1.8
				c-1.1,1.5-2.2,3-3.3,4.5c-2.4,3.2-5.2,6.1-8,8.8c-0.4,0.5-0.9,1.1-1.3,1.6c-0.2,0.2-0.1,0.4,0.1,0.7c-0.4,0.3-0.9,0.5-1.2,0.9
				c-0.5-0.1-1-0.1-1.3,0.3c-0.4,0.4-0.9,1-1.3,1.5c-0.4,0.4-0.8,1-1.2,1.4h0.1c-1,0.9-2,1.5-3.2,2.1c-1.8,0.9-3.4,1.9-5.4,2.2
				c-1.5,0.2-3,0.3-4.5,0.1C129,138.7,126.8,138.2,124.8,137.1z M132.9,96.7c-0.1,0.2-0.3,0.2-0.4,0
				C132.6,96.7,132.8,96.7,132.9,96.7z M138.1,129.2c0.7-0.3,1.3-0.7,2-1.1c1.1-0.7,2.2-1.4,3.3-2.2c-0.5,0.8-1.1,1.4-1.7,2.2
				c-0.2,0.1-0.3,0.2-0.4,0.3c-0.3,0.2-0.5,0.3-0.9,0.4c0.3-0.1,0.5-0.2,0.9-0.4c0.1-0.1,0.2-0.2,0.4-0.4c0.9-0.2,1.5-0.8,2.3-1.3
				c3-2.4,5.9-5.2,8.6-8c0.4-0.6,1-1.1,1.2-1.9c0.1-0.1,0.2-0.3,0.4-0.4c0.1-0.1,0.2-0.3,0.4-0.4c-0.2,0.2-0.3,0.3-0.4,0.4
				c-0.1,0.1-0.3,0.3-0.4,0.4c-0.7,0.3-1.1,0.8-1.5,1.3c-1.3,1.2-2.5,2.4-3.7,3.6c-0.5,0.4-1.1,1-1.9,1.3c2-2.1,4.1-4.2,6-6.3
				c0.6-0.5,1.2-1.2,1.5-2.1c-1,0.4-1.6,1.3-2.4,2c-4,4.1-8.3,7.8-12.9,11.2c-0.3,0.3-0.8,0.7-1.1,1c0,0,0,0.2,0,0.3
				C137.9,129.2,138.1,129.3,138.1,129.2z M139.5,67.5c0.1-0.3,0.3-0.7,0.4-1c-0.2,0.3-0.4,0.6-0.7,0.8v0.2
				C139.4,67.5,139.5,67.5,139.5,67.5z M143,78.2c0.2-0.3,0.7-0.5,0.7-0.3c0,0.2-0.1,0.4-0.2,0.6c-0.3,0.4-0.7,0.8-1,1.1
				C142.7,79.2,142.8,78.6,143,78.2z M145.9,123.8c-0.8,0.9-1.5,1.7-2.5,2.2C144,125.2,144.9,124.4,145.9,123.8z M146.3,123.5
				c-0.2,0.1-0.3,0.2-0.4,0.4C146,123.7,146.1,123.6,146.3,123.5z M146.3,133.1c-0.2,0.1-0.3,0.3-0.4,0.4
				C146,133.4,146.1,133.2,146.3,133.1z M146.7,123.1c-0.1,0.1-0.2,0.2-0.4,0.4C146.5,123.3,146.6,123.2,146.7,123.1z M146.7,132.6
				c-0.1,0.2-0.2,0.3-0.3,0.4C146.5,133,146.6,132.7,146.7,132.6z M147.1,132.2v0.1c-0.1,0.1-0.2,0.2-0.4,0.3
				C146.9,132.5,147,132.4,147.1,132.2z M147.6,131.9c-0.1,0.1-0.2,0.2-0.4,0.3C147.2,132.1,147.4,132,147.6,131.9z M148,58.6
				c0.9-0.2,1.5-0.9,2.1-1.7c0.1,0,0.2-0.1,0.3-0.1c0.1-0.1,0.2-0.2,0-0.2c0,0-0.1,0-0.1,0.1c-0.1,0-0.2,0.1-0.2,0.2
				C149.2,57.3,148.4,57.8,148,58.6c-0.1,0.2-0.3,0.3-0.4,0.4C147.7,58.9,147.8,58.7,148,58.6z M148,131.4c-0.1,0.1-0.3,0.2-0.4,0.4
				C147.7,131.6,147.8,131.5,148,131.4z M148.8,71.1c-0.1,0.1-0.1,0.2-0.2,0.3c0,0,0,0.1-0.1,0.2C148.5,71.5,148.7,71.4,148.8,71.1z
				 M149.2,70.8c-0.1,0.1-0.2,0.2-0.4,0.3C148.9,71,149.1,70.9,149.2,70.8z M149.6,70.4c-0.1,0.1-0.3,0.2-0.4,0.4
				C149.3,70.6,149.5,70.5,149.6,70.4z M149.6,130.2c-0.1,0.1-0.3,0.2-0.4,0.3C149.3,130.4,149.5,130.3,149.6,130.2z M150.1,69.9
				c-0.1,0.1-0.3,0.3-0.4,0.4C149.8,70.2,149.9,70,150.1,69.9z M150.1,129.8c-0.1,0.1-0.3,0.2-0.4,0.3
				C149.8,130,149.9,129.9,150.1,129.8z M150.4,69.5h0.1c-0.2,0.2-0.3,0.3-0.4,0.4C150.2,69.8,150.3,69.6,150.4,69.5z M150.5,129.3
				c-0.2,0.1-0.3,0.2-0.4,0.4C150.2,129.5,150.3,129.4,150.5,129.3z M150.9,69c-0.1,0.2-0.2,0.3-0.3,0.4h-0.1
				C150.6,69.4,150.7,69.3,150.9,69z M150.9,128.9c-0.1,0.1-0.2,0.3-0.3,0.4h-0.1C150.6,129.2,150.7,129,150.9,128.9z M151.2,68.6
				c0,0.1,0,0.1,0,0.2c-0.1,0.1-0.2,0.1-0.3,0.2C151,68.9,151.1,68.8,151.2,68.6z M151.3,128.5c-0.1,0.2-0.2,0.3-0.4,0.4
				C151.1,128.8,151.2,128.6,151.3,128.5z M154.3,64.4v0.1c0.7-0.2,1.2-0.7,1.8-1.1c0.8-0.5,1.5-1.1,2.4-1.4c-1.2,1.5-3,2.5-4.4,3.8
				c-0.4,0.4-1,0.8-1.5,1.1C152.8,66,153.8,65.4,154.3,64.4z M153.4,126.4c-0.1,0.2-0.2,0.3-0.4,0.4
				C153.2,126.7,153.3,126.5,153.4,126.4z M153.4,53.6c2-0.4,3.9-1.2,5.7-1.9c0.2,0,0.3-0.3,0.3-0.4c0-0.2-0.2-0.3-0.4-0.2
				C156.9,51.4,154.9,52,153.4,53.6h-0.1H153.4z M153.8,125.9c-0.1,0.2-0.2,0.3-0.4,0.4C153.5,126.3,153.7,126.1,153.8,125.9z
				 M154.3,125.6c-0.1,0.1-0.3,0.2-0.4,0.3C153.9,125.8,154,125.7,154.3,125.6z M154.7,125.2c-0.2,0.1-0.3,0.2-0.4,0.4
				C154.4,125.4,154.5,125.3,154.7,125.2z M155,124.7h0.1c-0.2,0.1-0.3,0.3-0.4,0.4C154.8,124.9,154.9,124.8,155,124.7z
				 M155.5,124.3c-0.1,0.2-0.2,0.3-0.4,0.4C155.3,124.6,155.4,124.4,155.5,124.3z M155.9,54c0.5,0,1.1-0.1,1.7-0.2
				c1.4-0.3,2.4-1,1.9-1.1c-0.8-0.2-1.4,0.2-2.1,0.5c-0.5,0.2-1,0.6-1.4,0.9h-0.1L155.9,54z M157,59.5c1.4-0.4,2.8-1,4.1-1.5
				c0.2,0,0.4-0.1,0.5-0.3c0.1,0,0.1-0.2,0.1-0.3c-0.1-0.3-0.3-0.3-0.7-0.3c-1.7,0.2-3.1,1-4.4,2c-0.2,0.2-0.4,0.3-0.2,0.5
				C156.6,59.6,156.9,59.6,157,59.5z M158.9,61.6c-0.2,0.1-0.3,0.2-0.4,0.4C158.6,61.8,158.7,61.7,158.9,61.6z M159.7,61.1
				c-0.2,0.1-0.5,0.3-0.8,0.4h-0.1C159.1,61.3,159.4,61.2,159.7,61.1z M160.5,60.7c-0.3,0.2-0.5,0.3-0.9,0.4
				C160,61,160.2,60.8,160.5,60.7z M160.1,118.9c-0.1,0.1-0.2,0.2-0.4,0.4C159.8,119.1,160,119,160.1,118.9z M165.2,82
				c0.2,0,0.5,0,0.8,0c-0.3,0.3-0.7,0.9-1.2,0.4C164.8,82.4,164.9,82.1,165.2,82z M166.4,81.6c-0.1,0.2-0.2,0.3-0.4,0.4
				C166,81.9,166.3,81.8,166.4,81.6z M170,73.4c0.1-0.2,0.1-0.4,0.1-0.5c-0.1,0.1-0.2,0.2-0.4,0.4c-0.2,0.3-0.2,0.7,0,0.5
				C169.8,73.8,169.9,73.6,170,73.4z"/>
			<path class="st6" d="M238.6,135.9c-1.8-0.8-3-1.9-3.9-3.3c-0.8-1.3-1.5-2.5-2.6-3.5c-1-1-1.5-2.3-2-3.6c-0.2-0.9-0.2-1.7-0.1-2.5
				c0.5-2.2,1-4.4,2-6.4c0.8-1.7,1.4-3.3,2.1-5c1.1-3.3,2.9-6.3,4.3-9.4c1.8-3.8,3.5-7.7,5-11.7c0.3-0.9,0.7-1.5,1.1-2.3
				c0.8-1.1,1.2-2.3,1.9-3.5c1-2.1,2-4.3,3.4-6.2c0.8-1.2,1.4-2.4,2-3.7c1-1.9,1.9-3.9,3.1-5.7c0.3-0.7,0.8-1.3,0.9-2.1
				c0.1-0.8,0.4-1.4,1-2c0.4-0.4,0.2-0.9-0.3-1c-0.3-0.1-0.5-0.1-0.9-0.2c-1-0.2-1.3-0.9-1.4-1.8c-0.1-0.9,0.3-1.6,1.2-2.1
				c0.3-0.1,0.8-0.2,1.2-0.2c0.9-0.1,1.9-0.2,2.9-0.3c0.4,0,1,0,1.4-0.3c0.1,0,0.2-0.2,0.2-0.3c0-0.1-0.2-0.2-0.3-0.2
				c-0.7-0.2-1.3-0.1-2,0c-1.1,0.1-2.1,0.2-3.2,0.2c-0.1,0-0.3-0.1-0.3-0.2c0-0.2,0.2-0.3,0.3-0.3c0.3-0.1,0.5-0.1,0.9-0.1
				c1.2-0.1,2.5-0.2,3.7-0.3c0.4,0,1-0.1,1.4-0.1c0.3-0.1,0.5-0.2,0.7-0.5c0.1-0.2-0.1-0.4-0.8-0.4c-1.2,0-2.4,0.1-3.7,0.1
				c-0.7,0-1.3,0.1-2.1,0.1c-0.8,0-1.2-0.4-1.1-1.3c0-1.1,1.2-2.4,2.5-2.8c0.5-0.1,1.2-0.1,1.9-0.1c1.4-0.1,2.9-0.1,4.4-0.3
				c0.3,0,0.7-0.1,1-0.1c3.7,0.1,7.5,0.1,11.2,0c1.1,0,2.1,0.1,3.2,0c3.3-0.1,6.5,0.5,9.7,1.2c2,0.4,3,1.9,3.7,3.4
				c0.2,0.4-0.2,0.9-0.7,0.9c-0.7-0.1-1.4-0.1-2.1-0.3c-3.5-1-7.3-1.3-10.9-1.2c-2.9,0-5.7,0-8.6,0c-1.1,0.1-1.8,0.3-1.5,0.7
				c0.3,0.7,1,0.4,1.4,0.4c4.2,0,8.4,0,12.5,0c2.3,0.1,4.6,0.3,6.9,0.7c0.8,0.1,1.4,0.4,2.2,0.7c0.2,0.1,0.4,0.2,0.2,0.4
				c-0.2,0.3-0.3,0.7,0.1,0.9c1,0.6,1.2,1.4,1.4,2.4c0.1,1.2-0.2,1.7-1.3,1.5c-1.1-0.1-2.3-0.2-3.3-0.4c-4-0.8-7.9-0.9-11.9-0.8
				c-1.5,0-3.1,0.1-4.6,0.2c-0.4,0-0.9,0.1-1.2,0.2c-0.2,0.1-0.4,0.2-0.4,0.4c-0.1,0.3,0.3,0.4,0.5,0.4c0.7,0,1.3,0,2.1,0
				c3,0,5.9,0,9,0.1c2.1,0,4.1,0.1,6.2,0.3c1.3,0.1,2.6,0.4,3.8,0.9c0.2,0.1,0.4,0.2,0.4,0.4c0.1,0.2-0.1,0.3-0.2,0.4
				c-1.1,0.7-2.3,1.1-3.6,0.9c-3.7-0.4-7.5-0.4-11.2-0.5c0.1-0.4,0.5-0.3,0.8-0.3c1,0,2,0,3,0.1c1,0,2.1,0.2,3.1,0
				c0.1-0.1,0.2-0.2,0.2-0.3c0-0.1-0.1-0.2-0.2-0.2c-0.1-0.1-0.2-0.1-0.3-0.1c-3.9-0.2-7.6-0.4-11.3,0c-0.4,0-1,0.1-1.4,0.2
				c-0.1,0-0.1,0.2-0.2,0.3c0.1,0.1,0.2,0.2,0.3,0.2c0.5,0,1.1,0,1.6,0c0.6,0,1.1,0,1.7,0.1c-0.8,0.4-1.7,0.5-2.5,0.5
				c-1.8,0-2.8,0.8-3.3,2.4c-1,3.2-2.1,6.5-3,9.8c0,0.2-0.1,0.4-0.1,0.7c-0.1,0.7,0.3,1.2,1.1,1.2c1.8-0.1,3.5,0.2,5.4,0.3
				c1,0.1,1.9,0.2,2.9,0.4c1.4,0.2,2.6,1.1,3.6,2c0.4,0.3,0.8,0.8,1,1.3c0.4,1.3,1.2,2.3,2.2,3.3c0.2,0.2,0.3,0.4,0.6,0.7
				c0.5,0.8,0.9,1.5,0.5,2.5c-0.1,0.3-0.1,0.7-0.2,1c-0.1,0.4,0,0.9,0.3,1.1c0.3,0.2,0.7,0.4,0.6,0.9c-0.1,0.3-0.4,0.5-0.7,0.8
				c-0.7,0.4-1.3,0.5-2,0.4c-0.5-0.1-1.1-0.2-1.6-0.3c-1.8-0.3-3.6-0.4-5.4-0.1c-1.4,0.3-2.9,0.5-4.4,0.5c-0.8,0-1.7,0.2-2.4,0.3
				c-1.8,0.4-3.6,0.7-5.4,0.6c-1.6-0.2-2.8,0.3-3.4,1.9c-0.1,0.2-0.2,0.4-0.4,0.7c-0.1,0-0.1-0.4-0.3-0.1c0.1,0,0.2,0.1,0.3,0.1
				c-0.1,0.8-0.2,1.5-0.9,2.1c0-0.2,0-0.4-0.1-0.5c-0.1-0.2-0.4-0.1-0.5,0.1c-0.2,0.4-0.5,0.9-0.8,1.4c-0.8,2.1-1.4,4.2-2.2,6.3
				c-0.5,1.3-1.2,2.8-1.8,4.1c-0.8,1.4-0.9,3.2-1.3,4.7c-0.1,0.3,0.2,0.4,0.6,0.3c0.2-0.1,0.4-0.1,0.5,0c0.4,0.9,1.1,0.8,1.8,0.5
				c1.5-0.3,3-0.5,4.5-1c2-0.7,4.1-0.8,6.2-0.9c1.3,0,2.5,0.2,3.7,0.7c1.1,0.3,2,0.9,2.5,2c0.4,0.7,1,1.1,1.8,1.4
				c1.9,0.7,3,2,3.5,3.8c0.2,0.8,0.7,1.5,1.1,2.2c0.5,0.5,0.3,1.3-0.3,1.8c-0.5,0.4-1.3,0.5-2,0.5c-2.5,0-5,0.7-7.4,1.4
				c-0.9,0.3-1.8,0.5-2.6,0.8c-0.4,0.2-1,0.3-1.5,0.5c-0.7,0.3-1.2,0.6-2,0.7c-0.4,0-0.9,0.1-1.2,0.3c-1.1,0.9-2.4,1.2-3.7,1.7
				c-0.9,0.3-1.8,0.7-2.5,1c-1,0.3-1.9,0.7-2.9,0.9c-0.8,0.1-1.5,0.3-2.4,0.7c-1.4,0.5-3,0.7-4.5,0.3
				C241.7,137,240.2,136.6,238.6,135.9z M255.4,105.8c0,0.7-0.1,1.3-0.4,2c-0.1,0.1-0.2,0.2-0.5,0.7
				C254.5,107.2,254.9,106.4,255.4,105.8z M257.1,101.6H257c-0.2,1.4-0.8,2.9-1.7,4.2C255.6,104.3,256.1,102.8,257.1,101.6z
				 M267.1,70.5l0.1-0.1l-0.2,0.1H267.1z M267.9,68.9 M285.8,58.9c0.1,0,0.2-0.1,0.2-0.2c0-0.1-0.1-0.3-0.2-0.3
				c-0.7-0.1-1.3-0.3-2-0.3c-4.5-0.2-8.9-0.1-13.3,0c-0.2,0-0.4,0-0.7,0.1c-0.1,0-0.2,0.1-0.2,0.2c-0.1,0.2,0.1,0.4,0.3,0.4
				c0.5,0,1.1,0.1,1.7,0c2.2,0,4.3-0.1,6.5-0.2c1.5,0.1,3.2,0.2,4.7,0.3C283.8,58.9,284.8,58.9,285.8,58.9z M287.3,66.3v-0.1
				l-0.1,0.1H287.3z"/>
			<path class="st6" d="M323.9,134.4c0.6-0.9,1.1-1.8,1.7-2.6c0.2-0.2,0.4-0.5,0.2-0.8c-0.3-0.3-0.7,0-0.9,0.2
				c-0.7,0.7-1.3,1.3-1.9,2c-0.3,0.3-0.5,0.7-0.9,0.9c-0.8,0.8-1.6,0.8-2.4,0.1c-0.9-0.8-1.1-1.7-0.7-2.9c0.1-0.3,0.3-0.8,0.4-1.1
				c0-0.1-0.1-0.2-0.2-0.3c0,0-0.1,0-0.2,0c-0.3,0.3-0.8,0.7-1.4,1.2c0.2-0.8,0.4-1.3,0.7-1.9c0-0.1,0-0.3-0.1-0.3
				c-0.1-0.1-0.2-0.1-0.3-0.1c-0.3,0.2-0.7,0.6-1,0.8c-0.5,0.3-1.1,0.2-1.4-0.3c-0.5-1.2-0.9-2.4-0.4-3.6c1.1-2.9,1.5-5.9,2.9-8.7
				c0.8-1.7,1-3.5,1.4-5.3c0.2-0.7,0.4-1.4,0.6-2.2c0-0.4,0-1,0-1.4c-0.1-0.4-0.4-0.7-0.8-0.6c-0.5,0-1.1,0.2-1.6,0.3
				c-2.3,0.6-4.6,1.1-6.9,1.7c-0.1-0.3-0.3-0.7-0.7-0.4c-1.2,0.9-2.4,1.8-3.2,3c-0.2,0.3-0.4,0.6-0.5,0.9c-1.4,3.1-2.9,6-4.3,9.1
				c-0.9,1.9-1.8,3.9-2.6,5.8c-0.7,1.5-1.3,3-1.6,4.5c-0.1,0.7-0.4,1-1.2,1c-0.7,0-1.1,0.5-1.5,0.9c-0.8,0.8-1.2,0.7-1.8-0.3
				c0-0.1,0-0.1-0.1-0.2c-0.4-0.8-0.5-0.8-1.2-0.2c-0.1,0.1-0.2,0.3-0.4,0.4c-0.3,0.3-0.8,0.3-1.1,0.1c-1.1-0.7-1.9-1.4-2.1-2.8
				c0-0.4-0.1-0.9-0.1-1.2c-0.1-0.4-0.3-0.7-0.8-0.6c-1.8,0.2-2.5-0.8-3.1-2.2c-0.4-1.4-0.3-2.8,0-4.2c0.2-0.8,0.4-1.5,0.8-2.3
				c0.2-1,0.5-2,0.3-3c0-0.5,0.1-1,0.3-1.5c0.2-0.6,0.1-0.8-0.5-0.7c-0.3,0-0.7,0-1,0c-0.7-0.1-1.2-0.6-1.4-1.1
				c-0.2-0.8,0-1.3,0.4-1.8c0.7-0.4,1.4-1,2.1-1.4c0.3-0.2,0.7-0.3,0.9-0.5c0.7-0.6,2-0.4,2.1-1.7c-1.1-0.2-1.8,0.7-2.5,1.1
				c-0.9,0.4-1.7,1.1-3,1.4c0.7-0.9,1.3-1.3,2-1.7c1.1-0.7,2.3-1.3,3.5-2c0.3-0.1,0.7-0.3,1-0.6c0.1-0.1,0.3-0.4,0.2-0.5
				c0-0.2-0.3-0.3-0.4-0.2c-0.8,0.3-1.5,0.7-2.3,1.1c-1.3,0.8-2.6,1.5-4,2.3c-0.2,0.2-0.4,0.3-0.7,0.4c-0.3,0.1-0.7,0-0.7-0.3
				c-0.2-1.4,0-2.8,1.3-3.7c1.2-0.9,2.4-1.9,3.6-2.9c0.7-0.4,1.4-0.8,2.2-1.1c0.8-0.3,1.7-0.7,2.5-1c1.1-0.6,2.1-1.4,2.5-2.6
				c0.8-1.5,1.7-2.9,2.2-4.5c0.1-0.5,0.5-1.1,0.8-1.7c0.9-1.8,1.8-3.3,2.3-5.2c0.8-2.1,1.8-4.1,3-5.9c1-1.7,1.7-3.4,2.4-5.2
				c0.3-0.8,0.7-1.4,1.1-2.2c1.4-2.1,2.9-4.3,4.3-6.4c0.2-0.4,0.6-0.9,0.7-1.3c0.4-1.3,1.2-2.5,2.1-3.6c2-2.4,3.6-5.1,5.8-7.4
				c0.9-0.9,1.7-1.9,2.6-2.6c1.5-1.2,3-2.6,4.7-3.8c1.2-0.8,2.6-1.5,4-2.1c1.7-0.7,3.2-0.2,4.5,0.9c0.5,0.5,0.4,1.2-0.3,1.5
				c-0.7,0.3-1.3,0.7-2,1c-0.2,0.1-0.4,0.3-0.2,0.5c0.1,0.1,0.3,0.1,0.5,0.1c0.3-0.1,0.7-0.2,1-0.3c0.3-0.1,0.8-0.2,1.1-0.3
				c0.2,0.1,0.3,0.2,0.1,0.3c-0.3,0.3-0.7,0.5-1.1,0.9c0.5,0.4,1.1,0,1.5-0.1c0.3-0.1,0.7-0.2,1-0.3c0.8-0.1,1.3,0.3,1.8,1
				c0.3,0.4,0.3,1,0,1.5c-0.4,0.5-0.8,1.1-0.9,1.9c-0.1,0.1-0.3,0.2-0.4,0.4c-0.1,0.1-0.2,0.2-0.4,0.3c-0.1,0.2-0.2,0.3-0.4,0.4
				c0.2-0.1,0.3-0.2,0.4-0.4c0.2-0.1,0.3-0.2,0.4-0.4c0.1-0.1,0.3-0.2,0.4-0.3c0.3,0,0.7-0.1,1,0c0.5,0,0.8,0.4,0.5,0.8
				c-0.3,0.6-0.7,0.9-1,1.3c-0.4,0.6-0.8,1-1.2,1.5c-0.1,0.1-0.1,0.3,0.1,0.5c0.1,0,0.3,0,0.5,0c-0.1,0.3-0.2,0.7-0.2,1
				c0,1.2,0.4,2.2,1.5,2.8c1.3,0.8,2.2,1.9,2.9,3.3c0.8,1.6,1.6,3.2,2.3,4.8c0.7,1.8,0.9,3.5,1,5.4c0.1,2.6,0.2,5.4,0.3,8
				c0,0.5-0.1,1.1-0.1,1.7c-0.1,0.3-0.2,0.5-0.2,0.9c0.3,3.1-0.7,6.1-1.4,8.9c-0.8,2.5-1.5,5-2.3,7.4c-0.5,2.3-1.3,4.5-2.2,6.7
				c-0.2,0.4-0.4,0.9-0.5,1.4c-0.8,3.2-2,6.3-3.3,9.5c-0.3,0.9-0.8,1.8-1,2.6c-1,3-2.4,5.7-3.8,8.4c-0.4,0.9-1,1.4-1.5,2
				c0.2-0.6,0.4-1.2,0.8-1.8c1-2.1,2.1-4.2,3.1-6.4c0.3-0.7,0.5-1.2,0.8-2c0.8-2.9,2-5.6,3.1-8.4c0.7-1.3,1.1-2.8,1.2-4.2
				c-0.2,0.1-0.4,0.1-0.4,0.2c-1.4,3.7-2.9,7.7-4.4,11.4c-1.2,3.1-2.5,6-4.3,8.9c-0.4,0.8-1,1.4-1.5,2.2c-0.3,0.3-0.7,0.7-1.1,0.9
				c-0.3,0.2-0.7,0.3-1,0.1C323.4,135.2,323.7,134.7,323.9,134.4z M291.8,118.3c0.1,0,0.1-0.1,0.1-0.1c-0.1-0.1-0.2-0.1-0.2,0
				c-0.1,0.1,0,0.1,0,0.2C291.7,118.4,291.8,118.4,291.8,118.3z M297.4,130.3c0.5-1.3,1-2.6,1.7-4c1.8-3.6,3.5-7.4,5.3-11.1
				c0.3-0.7,0.7-1.4,1-2.3c0.1-0.1,0-0.3,0-0.5c-0.1-0.1-0.2-0.2-0.3-0.1c-0.3,0.1-0.5,0.4-0.7,0.8c-0.9,1.8-1.8,3.6-2.6,5.5
				c-1.4,3.1-3,6-4.2,9.2c-0.2,0.8-0.4,1.5-0.7,2.2c0,0.2,0,0.5,0.1,0.5C297.2,130.8,297.3,130.4,297.4,130.3z M304.2,90.6
				c-0.1,0.4-0.7,0.7-0.3,1.1C304.2,91.4,304.1,91,304.2,90.6z M305.8,87.6c0.1-0.2,0.3-0.5,0.4-0.8c0.1-0.2,0.2-0.3,0.3-0.4
				c0-0.1,0-0.2,0-0.3c-0.1,0-0.1,0.1-0.2,0.2c0,0.2-0.1,0.3-0.1,0.5c-0.1,0.2-0.2,0.6-0.4,0.9c-0.1,0.2-0.2,0.5-0.3,0.8
				C305.6,88.3,305.7,88,305.8,87.6z M310,79.4l0.1-0.1L310,79.4c-1,1.1-1.5,2.3-1.1,2.1C309.7,81,309.8,80.2,310,79.4z
				 M317.3,105.1c0.1,0,0.2-0.1,0.2-0.2c-0.1-0.3-0.3-0.3-0.5-0.2c-2,0.3-4.1,0.8-6,1.2c-0.3,0-0.7,0.3-1,0.4
				c-0.1,0.1-0.1,0.2-0.1,0.3c0,0.3,0.2,0.3,0.6,0.4C312.6,106.6,315,106.1,317.3,105.1z M310.5,109.4v0.1h-0.1L310.5,109.4z
				 M311.3,76.9h-0.1H311.3z M313.4,73.1V73c-0.2,0.3-0.3,0.7-0.4,0.9C313.1,73.7,313.3,73.3,313.4,73.1z M323.8,94.9
				c0.3-0.8,0.5-1.8,0.8-2.5c1-2.4,1.5-4.8,1.8-7.4c0.1-0.7,0.3-1.4,0.4-2.2c0.8-2.8,1.4-5.5,2.2-8.3c0.1-0.4,0.1-0.9,0.2-1.1
				c0-0.2,0-0.3,0-0.3c-0.1-0.2-0.2-0.4-0.3-0.5c-0.2-0.1-0.3,0-0.5,0.2c-0.3,0.3-0.3,1-1,0.9c-0.9-0.1-1.3,0.3-1.8,0.9
				c-0.5,0.7-1,1.4-1.4,2.1c-1.3,2.3-2.6,4.7-4.2,6.9c-2.4,3.4-4,7.1-5.9,10.6c-0.1,0.2-0.1,0.5-0.2,0.8c0,0.1,0,0.2,0.1,0.2
				s0.2,0.1,0.3,0.1c0.3-0.1,0.7-0.4,0.8-0.7c0.6-1,1.1-2,1.5-3c0.8-1.9,1.8-3.5,2.9-5.1c0.7-0.9,1.1-1.6,1.5-2.5
				c1.1-2,2.1-4,3.2-5.8c0.4-0.9,1-1.5,1.5-2.3c0.2-0.2,0.3-0.5,0.7-0.2c0.1,0,0,0.3-0.1,0.5c-0.7,1.2-1.4,2.5-2.2,3.7
				c-0.9,1.3-1.7,2.8-2.4,4.2c-0.2,0.7-0.5,1.3-1,1.8c-1.9,2.5-3,5.4-4.4,8.1c0,0.1-0.1,0.3-0.1,0.6c-0.1,0.4,0.1,0.7,0.4,0.9
				c0.4,0.1,0.8,0.1,1.2,0.2c1.3,0,2.6,0.1,4,0.5C322.9,96.5,323.3,96.2,323.8,94.9z M323.9,58.4c0.1-0.1,0.2-0.2,0.3-0.3
				c0.2-0.2,0.3-0.3,0.4-0.4c0.2-0.1,0.3-0.3,0.4-0.4c0.1-0.1,0.3-0.3,0.4-0.4s0.2-0.2,0.4-0.4c0.1-0.1,0.2-0.2,0.4-0.3
				c0.1-0.2,0.2-0.3,0.3-0.4c0.2-0.2,0.3-0.3,0.4-0.4c0.5-0.2,0.9-0.4,1.3-0.9v0.1c-0.5,0.1-0.9,0.4-1.3,0.8
				c-0.1,0.1-0.2,0.3-0.3,0.4c-0.2,0.1-0.3,0.2-0.4,0.4c-0.2,0.1-0.3,0.2-0.4,0.3c-0.1,0.2-0.3,0.3-0.4,0.4
				c-0.1,0.2-0.3,0.3-0.4,0.4c-0.1,0.1-0.2,0.3-0.4,0.4c-0.1,0.1-0.2,0.3-0.3,0.4c-0.2,0.1-0.3,0.2-0.4,0.4
				c-0.1,0.1-0.3,0.2-0.4,0.3C323.6,58.7,323.7,58.6,323.9,58.4z M327.6,134.6 M328.4,71c0.1-0.2,0-0.3-0.1-0.3s-0.2,0.1-0.2,0.1
				c0,0.1,0,0.2,0,0.3C328.2,71.1,328.3,71,328.4,71z M337.3,109.4c0.9-1.4,1.4-3.1,1.8-4.7c0-0.1-0.1-0.2-0.2-0.2
				c-0.1,0-0.2,0.1-0.3,0.2c-0.6,1.5-1.2,3.1-1.8,4.5c0,0.1,0.1,0.3,0.2,0.3C337,109.6,337.2,109.5,337.3,109.4z M339.9,101.2
				c0,0,0,0,0-0.1c-0.1,0-0.1,0-0.1,0c-0.1,0-0.1,0-0.1,0.1S339.8,101.3,339.9,101.2z M340.6,99.2h-0.1l0.1,0.1V99.2z M341.7,95.3
				c0.1-0.1,0.1-0.3,0.1-0.5c0.5-0.7,0.8-1.3,0.4-1.1c-0.3,0.2-0.3,0.8-0.4,1.1c-0.1,0.2-0.2,0.3-0.3,0.5c0,0.1,0,0.2,0,0.3
				C341.6,95.6,341.7,95.4,341.7,95.3z"/>
			<path class="st6" d="M398.8,135.9c-1.5-1-3.3-1.4-4.6-2.8c-0.2-0.2-0.5-0.1-0.8,0c-0.4-0.1-0.9-0.2-1.1-0.5
				c-0.9-1.2-2.1-1.4-3.4-1.8c-3.4-0.8-6.6-2-9.7-3.6c0.1,0,0.2,0,0.3-0.1c0.1-0.1,0.1-0.3,0-0.3c0-0.1-0.2-0.2-0.3-0.1
				c0,0-0.1,0.1-0.1,0.2c0,0.1,0,0.3,0.1,0.4c-0.7-0.2-1.3-0.3-2-0.5c-0.2-0.1-0.5-0.2-0.5-0.3c0.1-1.3-1.1-1.3-1.8-1.5
				c-1.3-0.5-2.6-0.9-4-1.3c-0.8-0.2-1.6-0.7-2.4-0.1c-0.3,0.2-0.7,0.1-1,0c-1.3-0.7-2.8-1.1-3.8-2.1c-0.7,0.2-1.1,0.5-1.4,1.2
				c-0.4,0.9-1,1.9-1.2,2.9c-0.7,2.6-1.3,5.3-2.8,7.6c-0.1,0.1,0,0.2,0,0.3c0.1,0.1,0.3,0.1,0.4,0c0.2-0.2,0.5-0.4,0.8-0.7
				c-0.2,0.8-0.7,1.5-1.3,2.2c-0.3,0.4-0.8,0.9-1.5,0.6c-0.5-0.2-1,0.3-1.5,0.4c-0.9,0.2-1.7,0.3-2.2-0.5c-0.3-0.5-0.9-0.7-1.4-0.5
				c-0.9,0.1-1.3-0.3-1.8-0.9c-0.8-0.9-1.3-1.9-1.3-3c-0.1-0.7-0.2-1.1-0.9-1.3c-1.3-0.7-1.9-2-2.1-3.4c-0.1-1-0.1-1.9,0.1-2.9
				c0.8-3.7,2-7.4,3.7-10.9c1-2.1,1.2-4.4,2.4-6.5c0.1-0.2,1-2.8,1-3c0.7-3.4,0.7-4.9,2-8c0.9-2.3,1.1-5,2.1-7.3
				c0.9-1.9,1.8-3.6,2.6-5.5c1.9-4.4,4.4-8.4,6.6-12.5c0.4-0.9,1.1-1.8,1.7-2.6c0.2-0.2,0.4-0.5,0.7-0.9c0.3-0.5,2.1,0,1.5-0.3
				c-0.2-0.1-0.4-0.1-0.8-0.2c0.4-0.2,0.8-0.2,1.1-0.3c0.1-0.1,0.2-0.2,0.2-0.3s-0.1-0.2-0.2-0.2c-0.2-0.1-0.4-0.1-0.7-0.1
				c-4,0.2-7.9,0.8-11.8,1.3c-1,0.1-1.9,0.2-2.8,0.3c-0.3,0-0.7,0-1,0c-0.2-0.1-0.4-0.2-0.4-0.4c0-0.1,0.1-0.3,0.2-0.3
				c0.3-0.1,0.7-0.2,1-0.2c2.9-0.2,5.6-0.8,8.4-1.1c2.6-0.3,5.4-0.7,8-0.8c0.8,0,1.4,0,2.1-0.3c0.2-0.1,0.3-0.3,0.2-0.5
				c0-0.1-0.2-0.2-0.3-0.2c-0.2-0.1-0.5-0.1-0.8-0.1c-5.5,0.2-11,0.8-16.4,2.1c-0.9,0.2-1.8,0.3-2.6,0.2c-1.2-0.1-2-1-1.2-2.2
				c0.1-0.1,0.1-0.2,0.2-0.3c0.3-0.3,0.3-0.7,0-1.1c-0.7-1-0.3-1.9,0.4-2.6c0.4-0.4,1-0.8,1.7-1c3.1-1.2,6.2-2.4,9.6-2.9
				c0.2,0,0.5-0.1,0.8-0.1c1.8,0.1,3.5-0.3,5.2-0.8c1.4-0.4,3-0.7,4.5-0.7c2.9-0.1,5.7-0.3,8.6-0.4c1,0,2,0,2.9,0.1
				c2.9,0.3,5.7,0.7,8.5,1.3c5.1,1.1,9.5,3.4,12.7,7.5c1.8,2.2,3.1,4.5,3.7,7.3c0.5,2.9,1.3,5.8,1.4,8.8c0.1,2.2,0.1,4.4-0.2,6.5
				c-0.1,0.5-0.1,1.1-0.4,1.6c-1.1,2.2-2.2,4.4-4,6.4c-1,1.2-2.4,2.2-3.1,3.8c-0.3,0.8-1.2,1.1-2,1.5c-0.4,0.2-0.8,0.5-0.7,1.1
				c-1,0.9-2,1.8-3.1,2.5c-1.4,1.1-2.9,2.2-4,3.6c-0.7,0.8-1.7,1.3-2.5,1.8c-0.4,0-0.5,0.1-0.4,0.4c-0.5,0.4-1.1,0.9-1.6,1.2v0.1
				c-0.3,0-0.7,0-0.9,0V108c-0.4,0.2-1,0.3-1.4,0.5c-0.4,0.1-0.3,0.4,0.2,0.8h-0.1c-1,0.9-2,1.4-3.3,1.3c-0.7-0.1-0.9,0.1-1,1
				c0,0.5-0.7,1-0.3,1.6c0.3,0.6,1,0.7,1.5,1c3,1.7,6.3,2.9,9.5,4.2c1,0.3,1.9,0.8,2.5,1.4c0.7,0.8,1.5,1.2,2.4,1.6
				c1.3,0.6,2.4,1.4,3.5,2.2c1.2,0.9,1.8,2.1,2,3.5c0.1,0.4-0.1,0.8-0.7,0.9c-0.7,0.1-0.8,0.4-0.8,1c0.1,0.6,0.4,1,0.7,1.5
				c0.3,0.7,0.6,1.3,0.6,2.2c0,0.9-0.6,1.4-1.4,1.2c-0.4,0-0.9-0.2-1.4-0.3c-0.3-0.1-0.8-0.6-1-0.1c-0.2,0.3,0.4,0.7,0.7,1
				c0.2,0.1,0.3,0.2,0.5,0.3c0.4,0.3,1.2,0.6,1.1,1.1c-0.1,0.8-1,0.4-1.5,0.5C400.4,136.7,399.6,136.5,398.8,135.9z M359.4,58.9
				c2-0.3,3.8-0.7,5.8-0.9c5.7-0.8,11.4-1.1,17.3-0.9c1.6,0,3.3,0,4.9,0.2c1.2,0.2,2.3,0.2,3.6,0.3c-0.2-0.7-0.8-0.5-1.1-0.7
				c-3-0.5-5.9-1-8.9-1c-6.2-0.1-12.2,0.5-18.3,1.5c-1.4,0.2-2.8,0.6-4.2,0.9c0,0-0.1,0.2-0.2,0.3c0.1,0,0.2,0.1,0.3,0.1
				C359,59,359.2,58.9,359.4,58.9z M360,131.9v0.1c-0.1,0.2-0.3,0.5-0.4,0.8C359.6,132.5,359.7,132.2,360,131.9z M360,131.9v0.1
				V131.9z M372.2,58.7c4-0.3,8-0.2,12.1-0.8c-0.3,0-0.5-0.1-0.9-0.1c-3.5-0.2-7.2-0.2-10.8,0c-3.5,0.1-7,0.8-10.6,1.3
				c-0.5,0.1-1.1,0.2-1.5,0.3c-0.1,0.1-0.2,0.1-0.2,0.2c0,0,0,0.1,0.1,0.2C364.3,59.5,368.2,59,372.2,58.7z M396.8,131.4
				c0-0.1-0.1-0.2-0.1-0.3c-0.4-0.2-0.8-0.4-1.1-0.7c-4.7-2.3-9.6-4.5-14.5-6.4c-2-0.7-4-1.5-5.8-2.2c-3-1.1-5.9-2.2-8.9-3.2
				c-0.3-0.1-0.7-0.2-1,0c-0.1,0-0.1,0.2-0.1,0.3c0.2,0.4,0.8,0.5,1.1,0.8c2.8,1.3,5.5,2.3,8.4,3.3c5.6,2,11.1,4.1,16.6,6.4
				c1.2,0.6,2.4,1.2,3.6,1.7c0.4,0.2,1,0.4,1.5,0.6C396.6,131.6,396.7,131.5,396.8,131.4z M368,113.9l-0.1,0.1l0.1,0.1V113.9z
				 M370.3,124.3l0.1,0.1L370.3,124.3z M370.5,124.4h-0.1H370.5z M372.7,125.2c0,0,0.1,0,0.1,0.1
				C372.8,125.2,372.7,125.2,372.7,125.2z M372.9,125.3h-0.1H372.9z M369.5,103.2c2.2-1.1,4.5-2,6.4-3.6c1-0.8,8-5.5,9-6.3
				c2.1-1.5,4.3-3.1,6.3-4.8c2.5-2.2,5.1-4.4,7.1-7c1.2-1.5,0.5,1,1.7-0.5c0.3-0.3,0.5-0.7,0.8-1c-3.1,3.1,0.7-1.6-0.4-2.8
				c-1.5-1.5-1.4-6.8-3.5-7.7c-1.4-0.5-2.9-1-4.3-1.5c-1.8-0.8-3.5-1.2-5.5-1.2c-0.3,0-0.9,0-0.9-0.2c-0.3-0.6-0.8-0.6-1.3-0.4
				c-2.2,0.3-2.4,0.5-1.9,2.9c0.1,0.9-3.8,1.6-4.1,2.4c-0.4,1.4-0.8,2.9-1.3,4.2c-0.1,0.2-0.1,0.5,0,0.5c0.2,0.2,0.3,0,0.4-0.2
				c0.3-0.4,0.6-1,0.9-1.4c0.1-0.2,0.3-0.4,0.7-0.4c0.4,0.2,0.4,0.5,0.3,0.9c-0.1,0.8-0.3,1.5-0.7,2.2c-0.3,0.5-0.7,1.2-0.7,1.8
				c-0.1,1-0.9,1.7-0.9,2.4c0,1.2-0.9,1.8-1.2,2.6c0.2,0.7,0,1.2-0.2,1.9c-0.4,0.9-0.8,1.8-1.1,2.6c-0.6,1.1-2.9,6.4-4.3,6.9
				l-0.1,0.1c-0.1,0.2-0.3,0.6,0,0.8c0.5,0.3,0.4,0.8,0.2,1.2c-0.7,1.3-1.3,2.5-2,3.7c-1.2-3-0.4,1-0.5,1.5
				c-0.1,0.4,0.3,0.9,0.8,0.8C369.3,103.3,369.4,103.2,369.5,103.2z M369.6,98.1c0.1-0.2,0.2-0.4,0.2-0.8c-0.1,0.2-0.3,0.4-0.4,0.7
				c0,0-0.1,0.1,0,0.2C369.5,98.3,369.6,98.3,369.6,98.1z M383.8,120.2h-0.1c-0.6-0.5-1.3-0.8-2.1-0.9c-0.5-0.6-1.3-0.8-2.1-0.8
				c-0.8-0.8-1.8-1.2-2.9-1.5c-0.1,0-0.2,0.1-0.3,0.1c0,0.1,0,0.3,0.1,0.3c1,0.7,2,0.9,3.1,1.1c0.7,0.4,1.3,0.8,2.1,0.8
				c0.7,0.5,1.3,0.8,2.1,0.9H383.8z M395.9,123.7c-0.6-0.5-1.2-0.8-1.9-1.1c-2.8-1.3-5.6-2.5-8.4-3.7c-2.3-1-4.6-2-6.9-2.9
				c-0.3-0.1-0.7-0.2-1-0.2c-0.1,0-0.3,0.1-0.3,0.2c-0.1,0.1,0,0.3,0.1,0.3c0.5,0.3,1.2,0.7,1.8,0.9c4.4,1.9,8.8,3.7,13.1,5.5
				c0.9,0.4,1.8,0.8,2.8,1.1C395.4,123.9,395.6,124,395.9,123.7z M376.2,79.4c-0.1-0.1-0.1-0.1-0.1-0.1c-0.1,0-0.2,0.1-0.2,0.2
				l0.1,0.1C376.1,79.5,376.1,79.4,376.2,79.4z M388.8,64.1l0.1-0.1c0-0.1,0-0.3-0.1-0.3c-0.3-0.2-0.8-0.4-1.1-0.4
				c-1.9-0.3-3.6-0.5-5.3-0.9c-0.5,0.1-0.9,0.1-1.3,0.2c-0.1,0-0.2,0.2-0.2,0.3s0,0.2,0.1,0.3c0.2,0.1,0.4,0.1,0.5,0.2
				c2.2,0.2,4.4,0.4,6.6,0.7C388.3,64.1,388.6,64.1,388.8,64.1z M383.8,128.6c-0.4-0.1-0.9-0.3-1.3-0.4h-0.1h0.1
				C383,128.2,383.4,128.3,383.8,128.6c0.7,0.4,1.4,0.8,2.6,1C385.5,128.8,384.6,128.6,383.8,128.6z M385.9,121h-0.1l0.1,0.1
				c0.2,0.1,0.6,0.2,0.8,0.3C386.5,121.3,386.1,121.2,385.9,121z M388.3,108.9c-0.1,0.2-0.2,0.3-0.3,0.4h-0.1
				C388.1,109.2,388.2,109,388.3,108.9z M389.2,108.5c-0.3,0.1-0.6,0.2-0.9,0.3C388.7,108.8,388.9,108.7,389.2,108.5z M389.2,108.1
				c0.2,0,0.5,0,0.9,0c-0.3,0.1-0.7,0.2-0.9,0.3C389.2,108.3,389.2,108.2,389.2,108.1z M389.8,122.7h-0.1H389.8z M392.2,106.3
				c-0.2,0.2-0.3,0.3-0.4,0.4C391.9,106.7,392,106.6,392.2,106.3z M398.6,125.3l-0.1-0.1c-0.3-0.1-0.5-0.2-0.9-0.3
				c0.2,0.1,0.5,0.2,0.9,0.4H398.6z"/>
			<path class="st6" d="M422.8,138c-0.3-0.9-0.4-1-1.3-0.9c-0.3,0.1-0.5,0.1-0.8,0.2c-0.7,0.1-1.1-0.1-1.5-0.5c-0.5-0.6-1-1.2-1.2-2
				c-0.3-1.1-1-2.1-1.9-2.9c-0.8-0.7-1.2-1.5-1.4-2.5c-0.2-1.3-0.3-2.6,0-4c0.4-2.9,0.9-5.6,2.1-8.4c0.4-1,0.7-2.2,0.9-3.3
				c1-3.3,2.3-6.5,3.4-9.7c0.5-1.5,1.1-3.1,1.5-4.6c0.7-2.3,1.5-4.6,2.5-6.8c1.1-2.8,2.2-5.6,3.3-8.4c0.8-2.1,1.9-4.1,2.5-6.2
				c0.4-1.1,1.1-2.1,1.7-3.1c1.2-2,2.2-4,3.1-5.9c0.4-0.9,1-1.5,1.4-2.4c0.3-0.7,0-1.3-0.8-1.3c-0.8,0-1.5,0.1-2.3,0.2
				c-3.3,0.8-6.7,1.4-10,2.2c-0.9,0.2-1.9,0.3-2.9,0.2c0.7-0.2,1.3-0.4,2-0.5c4.3-1,8.6-2.1,13-2.9c0.1,0,0.1-0.1,0.2-0.1
				c1.2-0.2,1.9-0.7,1.7-1c-0.7-0.4-1.2,0-1.9,0.1c-5.1,0.9-10.2,2.2-15.3,3.4c-0.7,0.1-1.3,0.3-2,0.2c-0.4-0.1-0.8-0.2-0.9-0.5
				c-0.2-0.4,0.1-0.7,0.4-0.9c0.1-0.1,0.2-0.1,0.3-0.2c0-0.1,0.1-0.3,0.1-0.3c-0.1-0.2-0.2-0.3-0.4-0.4c-0.4,0-0.9,0-1.2-0.1
				c-0.9-0.1-1.3-0.4-1.3-1.3c-0.1-0.3-0.1-0.8,0-1.2c0.4-1.4,0.3-2.9,0.2-4.3c-0.1-2.1,0.8-4,2.6-5.1c1.4-0.9,2.9-1.8,4.5-2.2
				c3.6-1.1,7.4-2,11.2-2.6c1.2-0.1,2.4-0.3,3.6-0.8c0.4-0.1,1-0.2,1.4-0.2c1.3,0.1,2.6-0.1,4-0.4c1.2-0.3,2.4-0.4,3.6-0.7
				c3.7-0.5,7.4-0.8,11-1.1c4.3-0.3,8.5-0.7,12.8-0.6c1.8,0,3.5,0.2,5.2,0.8c1.6,0.5,2.9,1.7,3.7,3.2c0.2,0.3,0.4,0.8,0.2,1.2
				c-0.3,1.2,0.4,2.2,0.9,3.3c0.3,0.7,0.9,1.3,1.1,2c0.5,1.1,0.4,1.6-0.7,2.5c-0.1,0.1-0.3,0.2-0.4,0.3c-0.3,0.3-0.3,0.7,0,0.9
				c0.2,0.3,0.5,0.4,0.9,0.7c0.3,0.3,0.2,0.8-0.2,1c-1.2,0.7-2.4,1-3.7,0.5c-1.4-0.5-2.8-0.4-4.2-0.5c-3-0.1-5.9,0.2-8.9,0.4
				c-1.3,0.1-2.6,0.4-4,0.7c-1.5,0.2-3,0.3-4.5,0.5c-1.4,0.2-1.6,0.6-1.8,1.9c-0.2,2.1-0.8,4.2-1.8,6c0,0.1-0.1,0.3-0.2,0.6
				c-0.1,0.2-0.2,0.5,0.1,0.8c0.2,0.1,0.3,0,0.5-0.1c0.2-0.1,0.3-0.2,0.6-0.3c0.2-0.1,0.5,0.2,0.5,0.4c0,0.1,0,0.2-0.1,0.2
				c-0.7,1.1-0.9,2.3-1.1,3.5c-0.3,1.2-0.8,2.4-1.4,3.4c-0.1,0.1-0.2,0.3-0.2,0.4c0.2,1.8-1,3-1.9,4.3v-0.1c0.3,0.9,0,1.4-0.4,2.1
				c-0.3,0.1-0.7,0.2-0.8,0.4h-0.1c0.3-0.1,0.7-0.2,0.9-0.4c-0.6,1.3-1.2,2.4-2.1,3.5c-0.5,0.8-1.1,1.5-1.2,2.4c0.1,0,0.2,0,0.4,0
				h-0.1c-0.4,2.4-1.6,4.5-2.9,6.6c-1.1-0.1-1.5,0.8-2.1,1.5c-0.1,0.2-0.2,0.5,0.1,0.7c0.1,0.1,0.3,0,0.4-0.2c0.5-0.7,1.1-1.3,1.5-2
				c-0.2,1.2-0.7,2.3-1.3,3.3c-0.7,1.1-1.2,2.3-1.7,3.5c-1.3,3.5-2.9,6.8-4.4,10.1c-0.7,1.3-1.1,2.8-1.7,4.1
				c-1.4,3.7-2.9,7.4-4.4,11.1c-0.1,0.3-0.2,0.9-0.8,0.5v0.1c-0.4,0.3-0.8,0.9-0.5,1.4c0.2,0.9,0.1,1.6-0.2,2.4
				c-0.4,1-0.4,2.1-0.7,3.1c-0.2,1-0.4,1.2-1.4,1.1c-0.8-0.1-1.4,0.2-2.2,0.4C423.3,138.9,423.1,138.8,422.8,138z M420.6,58.5
				c0.1-0.1,0.3-0.2,0.4-0.3h0.1H421c-0.1,0.1-0.3,0.1-0.5,0.1c-0.1,0.1-0.1,0.2-0.2,0.2C420.4,58.5,420.5,58.6,420.6,58.5z
				 M422,64.9c5.7-1.6,11.5-2.7,17.3-3.8c0.5-0.1,1-0.3,1.4-0.5c0.1-0.1,0.2-0.3,0.2-0.4c0-0.3-0.1-0.4-0.3-0.4
				c-0.4,0-0.9,0-1.3,0.1c-3.1,0.7-6.3,1.2-9.4,2c-2.4,0.5-4.8,1.2-7.3,1.9c-0.5,0.2-1.1,0.3-1.4,0.9c-0.1,0,0,0.2,0,0.3l0.1,0.1
				C421.6,64.9,421.8,64.9,422,64.9z M429.8,54.5c3-0.5,5.9-1.2,9-1.7c6.8-1.2,13.8-2.2,20.7-2.6c4.5-0.3,9-0.8,13.5-0.7
				c0.3,0.1,0.6,0.1,0.9,0c0.2,0,0.7,0,0.7-0.3c0-0.2-0.3-0.3-0.5-0.4c-0.4-0.1-0.9-0.1-1.4-0.2c-1.3-0.1-2.8-0.1-4.2-0.2
				c-2.1,0-4.2,0.3-6.2,0.4c-5.1,0.2-10,1-15,1.6c-3.7,0.6-7.5,1.2-11.1,1.8c-3.3,0.7-6.5,1.3-9.6,2.2c-0.3,0.1-0.8,0.1-0.7,0.7
				c0,0.1,0.5,0.1,0.8,0.1C427.7,55,428.7,54.8,429.8,54.5z M451.4,52.8c7.7-1,15.4-1.5,23.1-1.9c-2.2-0.4-4.4-0.8-6.6-0.7
				c-4,0.2-7.8,0.4-11.7,1c-3.5,0.4-7,1-10.6,1.4c-5.6,0.8-11,1.9-16.4,3.2c-0.3,0.1-0.8,0-0.8,0.7
				C436.2,55.2,443.8,53.6,451.4,52.8z M432.1,122.3c0.1-0.2,0.2-0.4,0.2-0.7c0-0.1,0-0.2,0-0.2c-0.2-0.1-0.3-0.1-0.3,0
				c-0.2,0.2-0.3,0.4-0.3,0.8c-0.1,0,0,0.2,0.1,0.3C431.9,122.4,432,122.4,432.1,122.3z M433.2,118.8l-0.1-0.1l-0.1,0.1
				c0,0.1,0.1,0.1,0.1,0.1C433.2,118.9,433.2,118.8,433.2,118.8z M436,112.1c0-0.1,0.1-0.2,0.1-0.3c0.1-0.1,0.2-0.2,0.3-0.3v-0.1
				c0-0.1-0.1-0.1-0.2,0.1c0,0.1,0,0.2-0.1,0.3c0,0.1-0.1,0.1-0.2,0.2c0,0.1-0.1,0.1-0.1,0.2C435.9,112.3,435.9,112.2,436,112.1z
				 M438.7,106.1c0.1-0.1,0-0.2-0.1-0.2c-0.1,0-0.1,0-0.1,0.1c-0.1,0.1-0.2,0.2-0.2,0.3c0,0.2,0.1,0.2,0.2,0.1
				C438.6,106.4,438.7,106.2,438.7,106.1z M444,94.6c0.1-0.1,0-0.2-0.1-0.2c-0.2,0-0.3,0.2-0.3,0.4c-0.1,0.1,0,0.2,0.1,0.2
				C443.9,94.9,444,94.8,444,94.6z M455.6,58.5c5.5-0.8,10.9-1.2,16.4-1.2c1,0.1,1.9,0,2.8-0.1c0.3,0,0.7,0,0.9-0.6
				c-1.8-0.8-3.5-1-5.4-0.9c-5.4,0.2-10.8,0.8-16.1,1.4c-0.3,0.1-0.7,0.1-1,0.2c-0.4,0.1-1,0.2-0.9,0.7c0.1,0.5,0.7,0.5,1,0.5
				C454,58.8,454.8,58.6,455.6,58.5z M461.8,60.4c2.1-0.3,4.3-0.5,6.6-0.4c0.2,0,0.7,0,1.1,0c1,0,1.9,0.1,2.9-0.2
				c0.1,0,0.2-0.1,0.3-0.2c0-0.3-0.2-0.4-0.4-0.4c-3.4,0-6.8,0-10.1,0.3c-1.5,0.2-3,0.4-4.4,0.7c-0.8,0.1-1.4,0.2-2.2,0.4
				c-0.1,0-0.2,0.2-0.2,0.3s0.2,0.2,0.3,0.2c0.2,0.1,0.4,0.1,0.5,0.1C458.1,60.9,460,60.8,461.8,60.4z"/>
			<g>
				<g>
					<path class="st6" d="M183.6,58.5c0,0,1-0.2,2.3-0.4c0-0.1,0.1-0.3,0.1-0.4C185.3,58,184.5,58.3,183.6,58.5z"/>
					<path class="st6" d="M183.8,59c0.2,0.1,0.4,0,0.7-0.1c0.5-0.1,1-0.3,1.5-0.4c0,0,0,0,0,0C184.6,58.8,183.7,59,183.8,59z"/>
					<path class="st6" d="M181.6,133.4c-0.2,0.3-0.3,0.7-0.4,0.9c0.1-0.2,0.3-0.6,0.4-0.8L181.6,133.4z"/>
					<path class="st6" d="M186.8,59.5c0,0-0.3,0-0.6,0.1c-0.1-0.1-0.2-0.3-0.2-0.4c-0.2,0.1-0.3,0.1-0.5,0.2
						c-0.1,0.1-0.2,0.1-0.2,0.2c0,0,0,0.1,0.1,0.2c0.3-0.1,0.6-0.1,0.8-0.2c0,0,0,0,0,0C186.4,59.6,186.6,59.6,186.8,59.5z"/>
					<path class="st6" d="M188.3,63.9c0.1,0,0.1-0.1,0.2-0.1c-1.2,0.2-3.7,0.7-1.9,0.5c0.5,0,1-0.1,1.4-0.2
						C187.7,64,187.7,64,188.3,63.9z"/>
				</g>
				<path class="st6" d="M228.7,74.5c-0.4-2.9-1.4-5.8-2.2-8.6c-0.9-2.7-2.4-4.9-4.4-6.9c-3.5-3.8-8.1-5.7-13.3-6.3
					c-2.8-0.4-5.7-0.5-8.6-0.6c-0.9,0-1.9,0.1-2.9,0.1c-2.8,0.4-5.7,0.8-8.5,1.2c-1.5,0.1-3,0.5-4.4,1.1c-0.8,0.3,0.7,0.1,2.1-0.1
					c-0.5,0.4,4,0.3,1.5,1.5c-0.6,0.3-1.2,0.7-1.6,1.1c-0.2,0.2-0.3,0.5-0.5,0.7c0.5-0.2,1.1-0.3,1.6-0.5c5.9-1.5,2-0.8,8.2-1.3
					c3-0.3,6-0.1,9,0.2c0.3,0.1,0.9-0.1,1.2,0.6c-1.3,0-2.4,0.1-3.6,0c-1.7-0.1-3.3,0.1-4.9,0.2c-5.1,0.3-2.5-0.5-5.5,0.1
					c-1.1,0.2-3.8,0.6-5.9,1c0,0.1,0,0.2-0.1,0.4c0.3-0.1,0.5-0.1,0.8-0.2c-0.3,0.1-0.5,0.1-0.8,0.2c0,0.2,0,0.5,0.1,0.7
					c0.3-0.1,0.7-0.2,1-0.3c1.5-0.4,1.2-0.4,0.6-0.4c3.6-0.5,7.2-0.9,10.7-1c0.3,0,0.6,0.1,0.9,0c-4,0.9-8.1,1.2-12,1.8
					c-0.2,0-0.3,0.1-0.4,0.1c0,0-0.1,0-0.5,0.1c0,0,0,0.1,0.1,0.1c0.4,0.4,0.4,0.7,0.1,1.1c-0.1,0.1-0.1,0.2-0.2,0.3
					c-0.4,0.8-0.2,1.4,0.3,1.8c-0.3,0.1-0.3,0.1,0.2,0.1c0.3,0.1,0.6,0.2,0.9,0.2c0.4,0,0.8,0,1.1-0.1c0.1,0.2,0,0.4-0.2,0.6
					c0,0-0.1,0-0.1,0.1c0.6-0.1,0.9-0.1,0,0.1c-0.1,0-0.1,0-0.2,0c-0.1,0-0.2,0.1-0.3,0.1c0.7-0.1,3.2-0.5,1.2-0.1
					c-0.3,0-0.6,0.2-1,0.3c-0.1,0-0.2,0.2-0.2,0.3c0,0.2,0.1,0.3,0.3,0.3c-2.7,0.5-5.2,1-3.3,0.7c0.2,0,0.4,0,0.7,0.1
					c0.1,0,0.2,0.1,0.2,0.2c0,0.1-0.1,0.2-0.2,0.3c-0.3,0.1-0.6,0.2-1.1,0.4c0.3,0.1,0.6,0.1,0.8,0.2c0.7,0.3,0.9,0.7,0.7,1.3
					c-0.2,0.3-0.4,0.7-0.6,0.9c-0.5,0.9-1,1.9-1.4,2.8c-1.8,4.4-4,8.5-5.5,13.1c-0.7,1.9-1.4,3.8-2.1,5.7c-0.8,2.4-1.3,4.9-2,7.2
					c-1,3.2-2.4,6.4-2.8,9.9c0,0.2-0.1,0.6-0.2,0.8c-1,2.2-1.6,4.4-2.4,6.6c-1.4,3.7-2.3,7.4-2.8,11.2c-0.1,1-0.1,1.9,0.1,2.9
					c0.3,1.4,1,2.7,2.4,3.2c0.7,0.2,0.8,0.6,1,1.2c0.1,1.1,0.7,2,1.6,2.8c0.5,0.5,1,0.9,1.8,0.7c0.5-0.2,1.1-0.1,1.5,0.4
					c0.6,0.8,1.4,0.6,2.2,0.4c0.5-0.2,0.9-0.7,1.5-0.6c0.8,0.3,1.2-0.2,1.5-0.7c0.6-0.7,1-1.5,1.1-2.3c-0.2,0.2-0.5,0.5-0.7,0.7
					c-0.1,0.1-0.3,0.1-0.4,0c0-0.1-0.1-0.2,0-0.3c1.2-2.4,1.6-5.1,2.1-7.8c0.1-1,0.6-2,0.9-3c0.3-0.7,0.7-1.1,1.3-1.3
					c1.2,0.9,2.6,1.2,4,1.7c0.3,0.1,0.7,0.2,1-0.1c0.7-0.6,1.6-0.3,2.4-0.1c1.4,0.3,2.7,0.5,4.1,1c0.7,0.2,1.9,0.1,1.9,1.4
					c0,0.1,0.3,0.2,0.6,0.3c0.7,0.2,1.3,0.2,2,0.4c-0.1-0.1-0.1-0.3-0.1-0.4c0-0.1,0.1-0.2,0.1-0.2c0.1-0.1,0.3,0,0.3,0.1
					c0.1,0,0.1,0.2,0,0.3c-0.1,0.1-0.2,0.1-0.3,0.1c3.2,1.4,6.5,2.3,10,2.8c1.3,0.2,2.6,0.3,3.6,1.4c0.2,0.3,0.7,0.4,1.1,0.4
					c0.2-0.1,0.5-0.3,0.8-0.1c1.4,1.2,3.2,1.5,4.8,2.3c0.8,0.5,1.7,0.6,2.7,0.4c0.5-0.2,1.4,0.1,1.5-0.7c0.1-0.6-0.7-0.7-1.2-1
					c-0.2-0.1-0.3-0.2-0.6-0.3c-0.2-0.3-0.9-0.6-0.7-0.9c0.2-0.5,0.7-0.1,1,0c0.6,0.1,1,0.2,1.5,0.2c0.9,0.1,1.4-0.5,1.3-1.3
					c-0.1-0.9-0.4-1.5-0.7-2.1c-0.3-0.5-0.6-0.9-0.8-1.5c0-0.5,0-0.9,0.7-1.1c0.5-0.2,0.7-0.5,0.6-0.9c-0.3-1.4-1-2.6-2.3-3.3
					c-1.2-0.7-2.3-1.4-3.7-1.9c-0.9-0.4-1.8-0.7-2.6-1.4c-0.7-0.6-1.6-1-2.6-1.2c-3.3-1-6.7-1.9-9.8-3.3c-0.6-0.3-1.2-0.3-1.6-0.8
					c-0.4-0.6,0.2-1.1,0.2-1.7c0-0.9,0.2-1.1,0.9-1.1c1.3,0,2.3-0.6,3.2-1.6l0.1,0c0.1-0.1,0.2-0.2,0.3-0.5
					c-0.1,0.1-0.2,0.3-0.4,0.4c-0.5-0.3-0.6-0.6-0.2-0.7c0.4-0.3,1-0.4,1.4-0.7l0,0.1c0,0.1,0,0.2,0,0.3c0.2-0.1,0.5-0.3,0.8-0.4
					l0-0.1c0.5-0.4,1-0.9,1.5-1.4c-0.1-0.3,0-0.4,0.4-0.5c0.8-0.5,1.8-1.2,2.4-2c1-1.5,2.3-2.7,3.6-4c1-0.9,1.9-1.8,2.8-2.8
					c-0.2-0.5,0.1-0.9,0.6-1.2c0.7-0.5,1.6-0.9,1.8-1.7c0.5-1.7,1.8-2.8,2.7-4.1c1.6-2.1,2.5-4.4,3.4-6.7c0.3-0.6,0.2-1.1,0.3-1.7
					C229.2,78.9,229,76.7,228.7,74.5z M175.2,117h-0.5l6-20h0.5L175.2,117z M181.7,89l-7.5,23c-0.6-0.6-0.3-1.5-0.1-2.3l7.4-23.1
					c0.1-0.4,0.3-0.7,0.6-0.9l0.6-0.6L181.7,89z M196.4,62.5c0.4-0.1,0.8-0.2,1.3-0.3c1.7,0.2,3.4,0.2,5.3,0.4
					c0.3,0,0.8,0.2,1.1,0.3c0.1,0,0.1,0.2,0.1,0.3l-0.1,0.1c-0.2,0-0.4,0-0.7,0.1c-2.2,0-4.4,0-6.6-0.1c-0.1-0.1-0.3-0.1-0.6-0.2
					c-0.1-0.1-0.1-0.2-0.1-0.3C196.3,62.7,196.3,62.5,196.4,62.5z M197.1,79.3c-0.1,0-0.1,0.1-0.2,0.2l-0.1-0.1
					c0-0.1,0.1-0.2,0.2-0.2C197,79.2,197,79.2,197.1,79.3z M193.6,94.3c0.1-0.2,0.3-0.5,0.4-0.7c0,0.3-0.1,0.6-0.1,0.8
					c0,0.2-0.1,0.2-0.2,0.1C193.5,94.4,193.6,94.3,193.6,94.3z M188,114.8l0,0.2l-0.1-0.1L188,114.8z M205.1,128
					c0.8-0.1,1.7,0.1,2.7,0.7C206.6,128.6,205.8,128.4,205.1,128z M219.4,123.3l0.1,0.1l-0.1,0c-0.3-0.2-0.7-0.3-0.9-0.4
					C218.8,123.1,219,123.2,219.4,123.3z M218.1,129.3c0,0.1,0.1,0.2,0.1,0.3c-0.1,0.1-0.2,0.2-0.3,0.2c-0.6-0.1-1.1-0.2-1.6-0.4
					c-1.2-0.3-2.5-0.9-3.8-1.3c-5.7-1.8-11.3-3.4-17.1-4.9c-2.9-0.7-5.8-1.5-8.6-2.5c-0.3-0.2-0.9-0.3-1.2-0.7c0-0.1,0-0.3,0.1-0.3
					c0.3-0.2,0.6-0.2,1-0.1c3,0.7,6.1,1.6,9.2,2.4c1.9,0.5,4,1.2,6,1.7c5.1,1.4,10.1,3.2,15,5.1C217.3,129,217.7,129.2,218.1,129.3z
					 M196.6,117.2c0.1,0,0.2-0.1,0.3-0.1c1.1,0.2,2.2,0.6,3,1.3c0.8-0.1,1.6,0.1,2.2,0.6c0.8,0,1.6,0.2,2.2,0.7
					c-0.8,0-1.5-0.2-2.2-0.7c-0.8,0.1-1.5-0.2-2.2-0.6c-1.1-0.1-2.1-0.3-3.2-0.8C196.6,117.6,196.6,117.4,196.6,117.2z M206.4,120.2
					l0.1,0c0.2,0.2,0.6,0.3,0.8,0.4c-0.2-0.1-0.6-0.2-0.8-0.3L206.4,120.2z M206.1,118.2c2.8,1,5.8,1.9,8.7,3c0.7,0.3,1.4,0.4,2,0.9
					c-0.3,0.4-0.5,0.3-0.8,0.2c-1-0.2-1.9-0.5-2.8-0.8c-4.4-1.4-9-2.8-13.5-4.3c-0.6-0.2-1.3-0.4-1.8-0.7c-0.1,0-0.2-0.2-0.1-0.3
					c0-0.1,0.2-0.2,0.3-0.2c0.3,0,0.7,0.1,1,0.1C201.3,116.6,203.7,117.4,206.1,118.2z M219.2,73.8c-0.2,0.3-0.4,0.7-0.7,1.1
					c-1.1,1.6-2.3,3.2-3.3,4.8c-1.8,2.8-4.2,5.2-6.5,7.7c-1.8,1.9-3.9,3.7-5.8,5.4c-0.9,0.9-1.8,1.7-2.8,2.6c-1.7,1.8-3.9,2.9-6,4.2
					c-0.1,0-0.2,0.1-0.3,0.1c-0.4,0.1-0.9-0.3-0.8-0.7c0.1-0.6,0.2-1,0.4-1.6c0.5-1.3,1.1-2.5,1.6-3.9c0.2-0.5,0.3-0.9-0.3-1.2
					c-0.3-0.2-0.2-0.5-0.1-0.8l0.1-0.1c1.4-0.6,1.6-1.9,2-3.1c0.3-0.9,0.5-1.8,0.9-2.7c0.2-0.7,0.3-1.2,0.1-1.9
					c0.3-0.9,1.1-1.5,1-2.7c-0.1-0.8,0.6-1.5,0.7-2.5c0-0.5,0.2-1.2,0.5-1.8c0.3-0.7,0.4-1.5,0.5-2.3c0.1-0.3,0.1-0.7-0.4-0.8
					c-0.3,0-0.5,0.3-0.6,0.5c-0.3,0.5-0.5,1-0.7,1.5c-0.1,0.2-0.2,0.5-0.4,0.3c-0.1,0-0.1-0.3,0-0.5c0.4-1.4,0.6-2.8,0.9-4.3
					c0.3-0.8,0.1-1.6-0.1-2.4c-0.8-2.3-0.6-2.5,1.6-3c0.5-0.2,1-0.2,1.4,0.3c0,0.2,0.6,0.2,0.9,0.1c2-0.2,3.8,0.1,5.6,0.7
					c1.5,0.4,2.9,0.7,4.4,1.2c2.2,0.8,4.1,1.8,5.8,3.2C219.7,72.1,219.8,72.5,219.2,73.8z"/>
			</g>
		</g>
	</g>
</g>
</svg>
