<?xml version="1.0" encoding="utf-8"?>
<!-- Generator: Adobe Illustrator 19.1.0, SVG Export Plug-In . SVG Version: 6.00 Build 0)  -->
<svg version="1.1" id="Слой_1" xmlns="http://www.w3.org/2000/svg" xmlns:xlink="http://www.w3.org/1999/xlink" x="0px" y="0px"
	 viewBox="-235 327.3 139.7 139.7" style="enable-background:new -235 327.3 139.7 139.7;" xml:space="preserve">
<style type="text/css">
	.st0{fill:url(#SVGID_1_);}
	.st1{fill:#0E3A58;}
	.st2{fill:#969CB3;}
	.st3{fill:#717588;}
	.st4{fill:#AFB9D2;}
	.st5{fill:url(#SVGID_2_);}
</style>
<g>
	
		<linearGradient id="SVGID_1_" gradientUnits="userSpaceOnUse" x1="-163.5995" y1="323.45" x2="-163.5995" y2="416.5239" gradientTransform="matrix(1 0 0 1 0 4.6)">
		<stop  offset="0" style="stop-color:#7698B3"/>
		<stop  offset="1" style="stop-color:#4E5EAB"/>
	</linearGradient>
	<path class="st0" d="M-200.5,392.3c2.3-7.7,11.2-20.9,11.2-20.9s22.4-30.4,34.4-43.4c2,27,13.9,43.8,25,64.5
		c3.8,7.1,4.1,15.3,1.3,23.2c-0.8,0.2-1.8,0.2-2.3,0.7c-5.5,4.8-11.6,6.2-18.3,2.8c-6.8-3.5-8.3-9.7-8.2-16.7
		c0.1-5.8,0.1-11.6-0.2-17.3c-0.2-4.7-3.4-7.4-7.6-8.7c-4.1-1.3-7.6,0-10.4,3.2c-3,3.3-3.3,7.4-3.2,11.6c0.2,6-2.3,10.3-8.4,11.3
		C-195.1,403.9-198.6,399-200.5,392.3z"/>
	<path class="st1" d="M-200.5,392.3c1.9,6.7,5.4,11.6,13.3,10.2c6.1-1,8.6-5.3,8.4-11.3c-0.1-4.2,0.2-8.2,3.2-11.6
		c2.8-3.2,6.3-4.5,10.4-3.2c4.2,1.3,7.4,4,7.6,8.7c0.3,5.8,0.3,11.6,0.2,17.3c-0.1,7,1.4,13.3,8.2,16.7c6.7,3.4,12.8,2,18.3-2.8
		c0.6-0.5,1.5-0.5,2.3-0.7c-3.6,14.9-13.9,23.2-27.7,28.1c-0.6-0.2-1.1-0.1-1.5,0.2c-0.9,0.1-1.9,0.3-2.8,0.4l-5.1,0.3
		c-2.9-0.3-5.9-0.6-8.8-1C-199.3,433.5-209.2,413.9-200.5,392.3L-200.5,392.3z"/>
	<path class="st2" d="M-167.5,439.4h-15.7l5.2,8.1h26.1l5.2-8.1H-167.5z"/>
	<path class="st3" d="M-178,460.8l3.7,3.8c1,1,2.3,1.6,3.7,1.6h11.3c1.4,0,2.7-0.6,3.7-1.6l3.7-3.8H-178z"/>
	<path class="st4" d="M-151.9,444.8h-26c-1.4,0-2.6,1.2-2.6,2.7s1.2,2.7,2.6,2.7h26c1.4,0,2.6-1.2,2.6-2.7S-150.4,444.8-151.9,444.8
		z M-151.9,455.5h-26c-1.4,0-2.6,1.2-2.6,2.7s1.2,2.7,2.6,2.7h26c1.4,0,2.6-1.2,2.6-2.7S-150.4,455.5-151.9,455.5z"/>
	<path class="st2" d="M-151.9,450.1H-178c-1.4,0-2.6,1.2-2.6,2.7s1.2,2.7,2.6,2.7h26c1.4,0,2.6-1.2,2.6-2.7
		C-149.3,451.3-150.4,450.1-151.9,450.1z"/>
	
		<linearGradient id="SVGID_2_" gradientUnits="userSpaceOnUse" x1="-173.6762" y1="405.9517" x2="-165.6556" y2="405.9517" gradientTransform="matrix(1 0 0 1 0 4.6)">
		<stop  offset="0" style="stop-color:#7698B3"/>
		<stop  offset="1" style="stop-color:#4E5EAB"/>
	</linearGradient>
	<path class="st5" d="M-173.7,413.3c-0.2,2.8,1.2,4.6,3.8,4.7c2.6,0.1,4.2-2.1,4.2-4.1c0.1-2.6-4.2-10.9-4.2-10.9
		S-173.5,411.3-173.7,413.3z"/>
</g>
</svg>
